<svg xmlns="http://www.w3.org/2000/svg" width="560" height="340">
  <rect width="100%" height="100%" fill="#fafafa"/>
  <text x="280" y="24" text-anchor="middle" font-size="13">Signed predictive residuals</text>
  <text x="280" y="328" text-anchor="middle" font-size="11">error</text>
  <rect x="52.0" y="287.5" width="14.2" height="0.5" fill="#1f4e79" fill-opacity="0.75"/><rect x="67.2" y="288.0" width="14.2" height="0.0" fill="#1f4e79" fill-opacity="0.75"/><rect x="82.4" y="288.0" width="14.2" height="0.0" fill="#1f4e79" fill-opacity="0.75"/><rect x="97.6" y="288.0" width="14.2" height="0.0" fill="#1f4e79" fill-opacity="0.75"/><rect x="112.8" y="288.0" width="14.2" height="0.0" fill="#1f4e79" fill-opacity="0.75"/><rect x="128.0" y="287.5" width="14.2" height="0.5" fill="#1f4e79" fill-opacity="0.75"/><rect x="143.2" y="287.5" width="14.2" height="0.5" fill="#1f4e79" fill-opacity="0.75"/><rect x="158.4" y="287.1" width="14.2" height="0.9" fill="#1f4e79" fill-opacity="0.75"/><rect x="173.6" y="286.2" width="14.2" height="1.8" fill="#1f4e79" fill-opacity="0.75"/><rect x="188.8" y="283.9" width="14.2" height="4.1" fill="#1f4e79" fill-opacity="0.75"/><rect x="204.0" y="283.4" width="14.2" height="4.6" fill="#1f4e79" fill-opacity="0.75"/><rect x="219.2" y="273.8" width="14.2" height="14.2" fill="#1f4e79" fill-opacity="0.75"/><rect x="234.4" y="260.5" width="14.2" height="27.5" fill="#1f4e79" fill-opacity="0.75"/><rect x="249.6" y="202.8" width="14.2" height="85.2" fill="#1f4e79" fill-opacity="0.75"/><rect x="264.8" y="66.2" width="14.2" height="221.8" fill="#1f4e79" fill-opacity="0.75"/><rect x="280.0" y="52.0" width="14.2" height="236.0" fill="#1f4e79" fill-opacity="0.75"/><rect x="295.2" y="180.3" width="14.2" height="107.7" fill="#1f4e79" fill-opacity="0.75"/><rect x="310.4" y="268.8" width="14.2" height="19.2" fill="#1f4e79" fill-opacity="0.75"/><rect x="325.6" y="276.5" width="14.2" height="11.5" fill="#1f4e79" fill-opacity="0.75"/><rect x="340.8" y="284.3" width="14.2" height="3.7" fill="#1f4e79" fill-opacity="0.75"/><rect x="356.0" y="287.1" width="14.2" height="0.9" fill="#1f4e79" fill-opacity="0.75"/><rect x="371.2" y="286.2" width="14.2" height="1.8" fill="#1f4e79" fill-opacity="0.75"/><rect x="386.4" y="287.1" width="14.2" height="0.9" fill="#1f4e79" fill-opacity="0.75"/><rect x="401.6" y="287.5" width="14.2" height="0.5" fill="#1f4e79" fill-opacity="0.75"/><rect x="416.8" y="288.0" width="14.2" height="0.0" fill="#1f4e79" fill-opacity="0.75"/><rect x="432.0" y="288.0" width="14.2" height="0.0" fill="#1f4e79" fill-opacity="0.75"/><rect x="447.2" y="288.0" width="14.2" height="0.0" fill="#1f4e79" fill-opacity="0.75"/><rect x="462.4" y="288.0" width="14.2" height="0.0" fill="#1f4e79" fill-opacity="0.75"/><rect x="477.6" y="288.0" width="14.2" height="0.0" fill="#1f4e79" fill-opacity="0.75"/><rect x="492.8" y="287.5" width="14.2" height="0.5" fill="#1f4e79" fill-opacity="0.75"/>
</svg>