<?xml version="1.0"?><svg xmlns="http://www.w3.org/2000/svg" width="480" height="360">
  <rect width="100%" height="100%" fill="#fff"/>
  <text x="40" y="24" font-size="13" font-family="sans-serif">current WAR vs posterior-direct WAR</text>
  <line x1="40" y1="320" x2="440" y2="320" stroke="#333"/>
  <line x1="40" y1="40" x2="40" y2="320" stroke="#333"/>
  <circle cx="440.0" cy="40.0" r="2" fill="#1d4ed8" opacity="0.5"/>
<circle cx="418.3" cy="58.1" r="2" fill="#1d4ed8" opacity="0.5"/>
<circle cx="343.8" cy="89.6" r="2" fill="#1d4ed8" opacity="0.5"/>
<circle cx="305.5" cy="98.1" r="2" fill="#1d4ed8" opacity="0.5"/>
<circle cx="328.0" cy="100.5" r="2" fill="#1d4ed8" opacity="0.5"/>
<circle cx="337.4" cy="102.6" r="2" fill="#1d4ed8" opacity="0.5"/>
<circle cx="336.1" cy="103.8" r="2" fill="#1d4ed8" opacity="0.5"/>
<circle cx="309.2" cy="104.4" r="2" fill="#1d4ed8" opacity="0.5"/>
<circle cx="343.2" cy="104.7" r="2" fill="#1d4ed8" opacity="0.5"/>
<circle cx="347.8" cy="112.7" r="2" fill="#1d4ed8" opacity="0.5"/>
<circle cx="345.6" cy="112.9" r="2" fill="#1d4ed8" opacity="0.5"/>
<circle cx="354.6" cy="112.9" r="2" fill="#1d4ed8" opacity="0.5"/>
<circle cx="306.3" cy="116.9" r="2" fill="#1d4ed8" opacity="0.5"/>
<circle cx="341.3" cy="119.2" r="2" fill="#1d4ed8" opacity="0.5"/>
<circle cx="271.8" cy="122.3" r="2" fill="#1d4ed8" opacity="0.5"/>
<circle cx="318.7" cy="123.1" r="2" fill="#1d4ed8" opacity="0.5"/>
<circle cx="318.8" cy="124.4" r="2" fill="#1d4ed8" opacity="0.5"/>
<circle cx="285.5" cy="126.2" r="2" fill="#1d4ed8" opacity="0.5"/>
<circle cx="330.0" cy="126.2" r="2" fill="#1d4ed8" opacity="0.5"/>
<circle cx="323.2" cy="126.3" r="2" fill="#1d4ed8" opacity="0.5"/>
<circle cx="304.7" cy="128.1" r="2" fill="#1d4ed8" opacity="0.5"/>
<circle cx="309.5" cy="129.5" r="2" fill="#1d4ed8" opacity="0.5"/>
<circle cx="310.8" cy="133.3" r="2" fill="#1d4ed8" opacity="0.5"/>
<circle cx="250.5" cy="134.4" r="2" fill="#1d4ed8" opacity="0.5"/>
<circle cx="313.6" cy="136.1" r="2" fill="#1d4ed8" opacity="0.5"/>
<circle cx="295.4" cy="137.8" r="2" fill="#1d4ed8" opacity="0.5"/>
<circle cx="300.8" cy="138.1" r="2" fill="#1d4ed8" opacity="0.5"/>
<circle cx="299.1" cy="138.6" r="2" fill="#1d4ed8" opacity="0.5"/>
<circle cx="302.5" cy="140.1" r="2" fill="#1d4ed8" opacity="0.5"/>
<circle cx="208.9" cy="140.3" r="2" fill="#1d4ed8" opacity="0.5"/>
<circle cx="242.8" cy="141.2" r="2" fill="#1d4ed8" opacity="0.5"/>
<circle cx="306.3" cy="141.2" r="2" fill="#1d4ed8" opacity="0.5"/>
<circle cx="246.6" cy="141.3" r="2" fill="#1d4ed8" opacity="0.5"/>
<circle cx="285.8" cy="141.4" r="2" fill="#1d4ed8" opacity="0.5"/>
<circle cx="309.3" cy="142.8" r="2" fill="#1d4ed8" opacity="0.5"/>
<circle cx="307.2" cy="143.3" r="2" fill="#1d4ed8" opacity="0.5"/>
<circle cx="276.1" cy="143.3" r="2" fill="#1d4ed8" opacity="0.5"/>
<circle cx="288.5" cy="143.4" r="2" fill="#1d4ed8" opacity="0.5"/>
<circle cx="260.6" cy="144.3" r="2" fill="#1d4ed8" opacity="0.5"/>
<circle cx="259.3" cy="144.4" r="2" fill="#1d4ed8" opacity="0.5"/>
<circle cx="267.2" cy="145.1" r="2" fill="#1d4ed8" opacity="0.5"/>
<circle cx="253.1" cy="146.4" r="2" fill="#1d4ed8" opacity="0.5"/>
<circle cx="236.9" cy="147.4" r="2" fill="#1d4ed8" opacity="0.5"/>
<circle cx="279.7" cy="147.5" r="2" fill="#1d4ed8" opacity="0.5"/>
<circle cx="232.1" cy="147.7" r="2" fill="#1d4ed8" opacity="0.5"/>
<circle cx="269.9" cy="148.3" r="2" fill="#1d4ed8" opacity="0.5"/>
<circle cx="252.0" cy="148.6" r="2" fill="#1d4ed8" opacity="0.5"/>
<circle cx="310.1" cy="148.7" r="2" fill="#1d4ed8" opacity="0.5"/>
<circle cx="272.8" cy="148.9" r="2" fill="#1d4ed8" opacity="0.5"/>
<circle cx="224.0" cy="149.4" r="2" fill="#1d4ed8" opacity="0.5"/>
<circle cx="260.0" cy="149.8" r="2" fill="#1d4ed8" opacity="0.5"/>
<circle cx="278.5" cy="150.2" r="2" fill="#1d4ed8" opacity="0.5"/>
<circle cx="231.3" cy="150.5" r="2" fill="#1d4ed8" opacity="0.5"/>
<circle cx="293.2" cy="150.5" r="2" fill="#1d4ed8" opacity="0.5"/>
<circle cx="215.6" cy="151.0" r="2" fill="#1d4ed8" opacity="0.5"/>
<circle cx="204.4" cy="151.2" r="2" fill="#1d4ed8" opacity="0.5"/>
<circle cx="257.0" cy="152.6" r="2" fill="#1d4ed8" opacity="0.5"/>
<circle cx="223.5" cy="152.9" r="2" fill="#1d4ed8" opacity="0.5"/>
<circle cx="252.8" cy="152.9" r="2" fill="#1d4ed8" opacity="0.5"/>
<circle cx="250.0" cy="152.9" r="2" fill="#1d4ed8" opacity="0.5"/>
<circle cx="251.1" cy="153.0" r="2" fill="#1d4ed8" opacity="0.5"/>
<circle cx="277.2" cy="153.0" r="2" fill="#1d4ed8" opacity="0.5"/>
<circle cx="242.4" cy="153.0" r="2" fill="#1d4ed8" opacity="0.5"/>
<circle cx="250.8" cy="154.2" r="2" fill="#1d4ed8" opacity="0.5"/>
<circle cx="213.1" cy="154.3" r="2" fill="#1d4ed8" opacity="0.5"/>
<circle cx="210.5" cy="155.1" r="2" fill="#1d4ed8" opacity="0.5"/>
<circle cx="246.7" cy="155.6" r="2" fill="#1d4ed8" opacity="0.5"/>
<circle cx="244.8" cy="155.8" r="2" fill="#1d4ed8" opacity="0.5"/>
<circle cx="218.8" cy="156.2" r="2" fill="#1d4ed8" opacity="0.5"/>
<circle cx="245.4" cy="156.3" r="2" fill="#1d4ed8" opacity="0.5"/>
<circle cx="208.3" cy="157.1" r="2" fill="#1d4ed8" opacity="0.5"/>
<circle cx="209.2" cy="157.9" r="2" fill="#1d4ed8" opacity="0.5"/>
<circle cx="206.0" cy="157.9" r="2" fill="#1d4ed8" opacity="0.5"/>
<circle cx="227.4" cy="158.5" r="2" fill="#1d4ed8" opacity="0.5"/>
<circle cx="247.9" cy="158.9" r="2" fill="#1d4ed8" opacity="0.5"/>
<circle cx="181.6" cy="159.8" r="2" fill="#1d4ed8" opacity="0.5"/>
<circle cx="259.6" cy="159.9" r="2" fill="#1d4ed8" opacity="0.5"/>
<circle cx="246.1" cy="160.5" r="2" fill="#1d4ed8" opacity="0.5"/>
<circle cx="266.2" cy="160.6" r="2" fill="#1d4ed8" opacity="0.5"/>
<circle cx="214.8" cy="161.0" r="2" fill="#1d4ed8" opacity="0.5"/>
<circle cx="295.2" cy="161.0" r="2" fill="#1d4ed8" opacity="0.5"/>
<circle cx="241.6" cy="161.1" r="2" fill="#1d4ed8" opacity="0.5"/>
<circle cx="211.2" cy="161.3" r="2" fill="#1d4ed8" opacity="0.5"/>
<circle cx="222.6" cy="161.6" r="2" fill="#1d4ed8" opacity="0.5"/>
<circle cx="193.2" cy="161.8" r="2" fill="#1d4ed8" opacity="0.5"/>
<circle cx="205.3" cy="162.0" r="2" fill="#1d4ed8" opacity="0.5"/>
<circle cx="236.8" cy="162.2" r="2" fill="#1d4ed8" opacity="0.5"/>
<circle cx="266.4" cy="162.2" r="2" fill="#1d4ed8" opacity="0.5"/>
<circle cx="226.6" cy="162.5" r="2" fill="#1d4ed8" opacity="0.5"/>
<circle cx="239.0" cy="162.5" r="2" fill="#1d4ed8" opacity="0.5"/>
<circle cx="207.8" cy="162.5" r="2" fill="#1d4ed8" opacity="0.5"/>
<circle cx="244.0" cy="162.7" r="2" fill="#1d4ed8" opacity="0.5"/>
<circle cx="185.3" cy="162.9" r="2" fill="#1d4ed8" opacity="0.5"/>
<circle cx="282.6" cy="163.1" r="2" fill="#1d4ed8" opacity="0.5"/>
<circle cx="178.8" cy="163.5" r="2" fill="#1d4ed8" opacity="0.5"/>
<circle cx="239.1" cy="163.7" r="2" fill="#1d4ed8" opacity="0.5"/>
<circle cx="248.1" cy="164.1" r="2" fill="#1d4ed8" opacity="0.5"/>
<circle cx="234.2" cy="164.7" r="2" fill="#1d4ed8" opacity="0.5"/>
<circle cx="222.6" cy="165.1" r="2" fill="#1d4ed8" opacity="0.5"/>
<circle cx="242.3" cy="165.2" r="2" fill="#1d4ed8" opacity="0.5"/>
<circle cx="261.1" cy="165.4" r="2" fill="#1d4ed8" opacity="0.5"/>
<circle cx="238.3" cy="165.6" r="2" fill="#1d4ed8" opacity="0.5"/>
<circle cx="256.4" cy="165.6" r="2" fill="#1d4ed8" opacity="0.5"/>
<circle cx="249.0" cy="165.9" r="2" fill="#1d4ed8" opacity="0.5"/>
<circle cx="230.0" cy="166.4" r="2" fill="#1d4ed8" opacity="0.5"/>
<circle cx="189.9" cy="166.7" r="2" fill="#1d4ed8" opacity="0.5"/>
<circle cx="230.4" cy="167.1" r="2" fill="#1d4ed8" opacity="0.5"/>
<circle cx="188.4" cy="167.3" r="2" fill="#1d4ed8" opacity="0.5"/>
<circle cx="197.8" cy="167.4" r="2" fill="#1d4ed8" opacity="0.5"/>
<circle cx="235.4" cy="167.9" r="2" fill="#1d4ed8" opacity="0.5"/>
<circle cx="189.8" cy="168.1" r="2" fill="#1d4ed8" opacity="0.5"/>
<circle cx="210.2" cy="168.3" r="2" fill="#1d4ed8" opacity="0.5"/>
<circle cx="211.4" cy="168.6" r="2" fill="#1d4ed8" opacity="0.5"/>
<circle cx="190.5" cy="168.8" r="2" fill="#1d4ed8" opacity="0.5"/>
<circle cx="276.0" cy="168.8" r="2" fill="#1d4ed8" opacity="0.5"/>
<circle cx="193.2" cy="169.3" r="2" fill="#1d4ed8" opacity="0.5"/>
<circle cx="192.1" cy="169.4" r="2" fill="#1d4ed8" opacity="0.5"/>
<circle cx="209.2" cy="169.4" r="2" fill="#1d4ed8" opacity="0.5"/>
<circle cx="214.5" cy="169.6" r="2" fill="#1d4ed8" opacity="0.5"/>
<circle cx="270.2" cy="169.6" r="2" fill="#1d4ed8" opacity="0.5"/>
<circle cx="179.4" cy="169.8" r="2" fill="#1d4ed8" opacity="0.5"/>
<circle cx="161.5" cy="169.8" r="2" fill="#1d4ed8" opacity="0.5"/>
<circle cx="249.1" cy="170.1" r="2" fill="#1d4ed8" opacity="0.5"/>
<circle cx="244.8" cy="170.2" r="2" fill="#1d4ed8" opacity="0.5"/>
<circle cx="255.8" cy="170.3" r="2" fill="#1d4ed8" opacity="0.5"/>
<circle cx="179.6" cy="170.3" r="2" fill="#1d4ed8" opacity="0.5"/>
<circle cx="159.0" cy="170.5" r="2" fill="#1d4ed8" opacity="0.5"/>
<circle cx="279.6" cy="170.6" r="2" fill="#1d4ed8" opacity="0.5"/>
<circle cx="266.7" cy="170.7" r="2" fill="#1d4ed8" opacity="0.5"/>
<circle cx="261.6" cy="170.7" r="2" fill="#1d4ed8" opacity="0.5"/>
<circle cx="214.2" cy="171.1" r="2" fill="#1d4ed8" opacity="0.5"/>
<circle cx="174.4" cy="172.6" r="2" fill="#1d4ed8" opacity="0.5"/>
<circle cx="159.7" cy="173.2" r="2" fill="#1d4ed8" opacity="0.5"/>
<circle cx="239.1" cy="173.2" r="2" fill="#1d4ed8" opacity="0.5"/>
<circle cx="175.6" cy="173.4" r="2" fill="#1d4ed8" opacity="0.5"/>
<circle cx="197.4" cy="173.7" r="2" fill="#1d4ed8" opacity="0.5"/>
<circle cx="185.5" cy="173.9" r="2" fill="#1d4ed8" opacity="0.5"/>
<circle cx="208.2" cy="174.0" r="2" fill="#1d4ed8" opacity="0.5"/>
<circle cx="171.4" cy="174.1" r="2" fill="#1d4ed8" opacity="0.5"/>
<circle cx="214.8" cy="175.2" r="2" fill="#1d4ed8" opacity="0.5"/>
<circle cx="211.5" cy="175.3" r="2" fill="#1d4ed8" opacity="0.5"/>
<circle cx="157.4" cy="175.4" r="2" fill="#1d4ed8" opacity="0.5"/>
<circle cx="220.5" cy="175.7" r="2" fill="#1d4ed8" opacity="0.5"/>
<circle cx="195.3" cy="175.9" r="2" fill="#1d4ed8" opacity="0.5"/>
<circle cx="243.1" cy="176.1" r="2" fill="#1d4ed8" opacity="0.5"/>
<circle cx="183.6" cy="176.1" r="2" fill="#1d4ed8" opacity="0.5"/>
<circle cx="216.4" cy="176.3" r="2" fill="#1d4ed8" opacity="0.5"/>
<circle cx="186.9" cy="176.3" r="2" fill="#1d4ed8" opacity="0.5"/>
<circle cx="158.2" cy="176.6" r="2" fill="#1d4ed8" opacity="0.5"/>
<circle cx="173.2" cy="176.6" r="2" fill="#1d4ed8" opacity="0.5"/>
<circle cx="175.6" cy="176.7" r="2" fill="#1d4ed8" opacity="0.5"/>
<circle cx="213.2" cy="176.7" r="2" fill="#1d4ed8" opacity="0.5"/>
<circle cx="140.3" cy="176.9" r="2" fill="#1d4ed8" opacity="0.5"/>
<circle cx="188.4" cy="177.1" r="2" fill="#1d4ed8" opacity="0.5"/>
<circle cx="232.8" cy="177.2" r="2" fill="#1d4ed8" opacity="0.5"/>
<circle cx="169.0" cy="177.3" r="2" fill="#1d4ed8" opacity="0.5"/>
<circle cx="225.8" cy="177.5" r="2" fill="#1d4ed8" opacity="0.5"/>
<circle cx="197.7" cy="177.8" r="2" fill="#1d4ed8" opacity="0.5"/>
<circle cx="243.8" cy="177.8" r="2" fill="#1d4ed8" opacity="0.5"/>
<circle cx="207.2" cy="177.9" r="2" fill="#1d4ed8" opacity="0.5"/>
<circle cx="159.3" cy="178.3" r="2" fill="#1d4ed8" opacity="0.5"/>
<circle cx="204.0" cy="178.4" r="2" fill="#1d4ed8" opacity="0.5"/>
<circle cx="209.7" cy="178.4" r="2" fill="#1d4ed8" opacity="0.5"/>
<circle cx="231.5" cy="178.5" r="2" fill="#1d4ed8" opacity="0.5"/>
<circle cx="139.1" cy="178.7" r="2" fill="#1d4ed8" opacity="0.5"/>
<circle cx="153.7" cy="178.8" r="2" fill="#1d4ed8" opacity="0.5"/>
<circle cx="208.3" cy="179.0" r="2" fill="#1d4ed8" opacity="0.5"/>
<circle cx="236.9" cy="179.1" r="2" fill="#1d4ed8" opacity="0.5"/>
<circle cx="148.4" cy="179.2" r="2" fill="#1d4ed8" opacity="0.5"/>
<circle cx="145.0" cy="179.4" r="2" fill="#1d4ed8" opacity="0.5"/>
<circle cx="181.8" cy="179.8" r="2" fill="#1d4ed8" opacity="0.5"/>
<circle cx="144.2" cy="179.9" r="2" fill="#1d4ed8" opacity="0.5"/>
<circle cx="168.4" cy="180.0" r="2" fill="#1d4ed8" opacity="0.5"/>
<circle cx="175.5" cy="180.1" r="2" fill="#1d4ed8" opacity="0.5"/>
<circle cx="184.2" cy="180.1" r="2" fill="#1d4ed8" opacity="0.5"/>
<circle cx="143.7" cy="180.1" r="2" fill="#1d4ed8" opacity="0.5"/>
<circle cx="162.1" cy="180.1" r="2" fill="#1d4ed8" opacity="0.5"/>
<circle cx="167.6" cy="180.1" r="2" fill="#1d4ed8" opacity="0.5"/>
<circle cx="173.6" cy="180.4" r="2" fill="#1d4ed8" opacity="0.5"/>
<circle cx="187.8" cy="180.5" r="2" fill="#1d4ed8" opacity="0.5"/>
<circle cx="141.3" cy="180.5" r="2" fill="#1d4ed8" opacity="0.5"/>
<circle cx="136.6" cy="180.6" r="2" fill="#1d4ed8" opacity="0.5"/>
<circle cx="173.5" cy="180.9" r="2" fill="#1d4ed8" opacity="0.5"/>
<circle cx="169.0" cy="180.9" r="2" fill="#1d4ed8" opacity="0.5"/>
<circle cx="205.4" cy="181.1" r="2" fill="#1d4ed8" opacity="0.5"/>
<circle cx="145.5" cy="181.1" r="2" fill="#1d4ed8" opacity="0.5"/>
<circle cx="138.7" cy="181.2" r="2" fill="#1d4ed8" opacity="0.5"/>
<circle cx="140.3" cy="181.5" r="2" fill="#1d4ed8" opacity="0.5"/>
<circle cx="238.8" cy="181.5" r="2" fill="#1d4ed8" opacity="0.5"/>
<circle cx="205.4" cy="181.5" r="2" fill="#1d4ed8" opacity="0.5"/>
<circle cx="163.9" cy="181.6" r="2" fill="#1d4ed8" opacity="0.5"/>
<circle cx="162.5" cy="181.7" r="2" fill="#1d4ed8" opacity="0.5"/>
<circle cx="204.2" cy="182.1" r="2" fill="#1d4ed8" opacity="0.5"/>
<circle cx="147.6" cy="182.1" r="2" fill="#1d4ed8" opacity="0.5"/>
<circle cx="221.3" cy="182.2" r="2" fill="#1d4ed8" opacity="0.5"/>
<circle cx="207.5" cy="182.3" r="2" fill="#1d4ed8" opacity="0.5"/>
<circle cx="149.4" cy="182.3" r="2" fill="#1d4ed8" opacity="0.5"/>
<circle cx="173.6" cy="182.4" r="2" fill="#1d4ed8" opacity="0.5"/>
<circle cx="165.3" cy="182.4" r="2" fill="#1d4ed8" opacity="0.5"/>
<circle cx="188.1" cy="182.5" r="2" fill="#1d4ed8" opacity="0.5"/>
<circle cx="134.8" cy="182.5" r="2" fill="#1d4ed8" opacity="0.5"/>
<circle cx="136.3" cy="182.5" r="2" fill="#1d4ed8" opacity="0.5"/>
<circle cx="184.3" cy="182.5" r="2" fill="#1d4ed8" opacity="0.5"/>
<circle cx="199.2" cy="182.6" r="2" fill="#1d4ed8" opacity="0.5"/>
<circle cx="154.4" cy="182.6" r="2" fill="#1d4ed8" opacity="0.5"/>
<circle cx="214.9" cy="182.6" r="2" fill="#1d4ed8" opacity="0.5"/>
<circle cx="172.0" cy="182.8" r="2" fill="#1d4ed8" opacity="0.5"/>
<circle cx="134.1" cy="182.9" r="2" fill="#1d4ed8" opacity="0.5"/>
<circle cx="225.2" cy="183.0" r="2" fill="#1d4ed8" opacity="0.5"/>
<circle cx="208.9" cy="183.1" r="2" fill="#1d4ed8" opacity="0.5"/>
<circle cx="145.6" cy="183.2" r="2" fill="#1d4ed8" opacity="0.5"/>
<circle cx="136.8" cy="183.4" r="2" fill="#1d4ed8" opacity="0.5"/>
<circle cx="152.9" cy="183.6" r="2" fill="#1d4ed8" opacity="0.5"/>
<circle cx="131.8" cy="183.8" r="2" fill="#1d4ed8" opacity="0.5"/>
<circle cx="231.8" cy="183.8" r="2" fill="#1d4ed8" opacity="0.5"/>
<circle cx="193.6" cy="183.9" r="2" fill="#1d4ed8" opacity="0.5"/>
<circle cx="175.8" cy="184.1" r="2" fill="#1d4ed8" opacity="0.5"/>
<circle cx="169.0" cy="184.2" r="2" fill="#1d4ed8" opacity="0.5"/>
<circle cx="160.6" cy="184.5" r="2" fill="#1d4ed8" opacity="0.5"/>
<circle cx="141.5" cy="184.7" r="2" fill="#1d4ed8" opacity="0.5"/>
<circle cx="130.5" cy="184.7" r="2" fill="#1d4ed8" opacity="0.5"/>
<circle cx="147.1" cy="184.8" r="2" fill="#1d4ed8" opacity="0.5"/>
<circle cx="226.1" cy="184.8" r="2" fill="#1d4ed8" opacity="0.5"/>
<circle cx="156.8" cy="184.8" r="2" fill="#1d4ed8" opacity="0.5"/>
<circle cx="134.7" cy="184.8" r="2" fill="#1d4ed8" opacity="0.5"/>
<circle cx="124.5" cy="185.1" r="2" fill="#1d4ed8" opacity="0.5"/>
<circle cx="146.5" cy="185.1" r="2" fill="#1d4ed8" opacity="0.5"/>
<circle cx="176.6" cy="185.2" r="2" fill="#1d4ed8" opacity="0.5"/>
<circle cx="131.6" cy="185.3" r="2" fill="#1d4ed8" opacity="0.5"/>
<circle cx="124.7" cy="185.5" r="2" fill="#1d4ed8" opacity="0.5"/>
<circle cx="240.3" cy="185.5" r="2" fill="#1d4ed8" opacity="0.5"/>
<circle cx="179.6" cy="185.7" r="2" fill="#1d4ed8" opacity="0.5"/>
<circle cx="121.5" cy="185.8" r="2" fill="#1d4ed8" opacity="0.5"/>
<circle cx="214.7" cy="185.9" r="2" fill="#1d4ed8" opacity="0.5"/>
<circle cx="144.1" cy="186.0" r="2" fill="#1d4ed8" opacity="0.5"/>
<circle cx="174.6" cy="186.0" r="2" fill="#1d4ed8" opacity="0.5"/>
<circle cx="122.4" cy="186.1" r="2" fill="#1d4ed8" opacity="0.5"/>
<circle cx="141.4" cy="186.2" r="2" fill="#1d4ed8" opacity="0.5"/>
<circle cx="123.7" cy="186.2" r="2" fill="#1d4ed8" opacity="0.5"/>
<circle cx="207.5" cy="186.2" r="2" fill="#1d4ed8" opacity="0.5"/>
<circle cx="143.3" cy="186.4" r="2" fill="#1d4ed8" opacity="0.5"/>
<circle cx="184.6" cy="186.5" r="2" fill="#1d4ed8" opacity="0.5"/>
<circle cx="133.3" cy="186.5" r="2" fill="#1d4ed8" opacity="0.5"/>
<circle cx="151.9" cy="186.5" r="2" fill="#1d4ed8" opacity="0.5"/>
<circle cx="153.5" cy="186.5" r="2" fill="#1d4ed8" opacity="0.5"/>
<circle cx="154.3" cy="186.6" r="2" fill="#1d4ed8" opacity="0.5"/>
<circle cx="225.6" cy="186.7" r="2" fill="#1d4ed8" opacity="0.5"/>
<circle cx="125.3" cy="186.8" r="2" fill="#1d4ed8" opacity="0.5"/>
<circle cx="127.3" cy="186.9" r="2" fill="#1d4ed8" opacity="0.5"/>
<circle cx="162.4" cy="186.9" r="2" fill="#1d4ed8" opacity="0.5"/>
<circle cx="144.2" cy="187.0" r="2" fill="#1d4ed8" opacity="0.5"/>
<circle cx="118.0" cy="187.2" r="2" fill="#1d4ed8" opacity="0.5"/>
<circle cx="120.4" cy="187.3" r="2" fill="#1d4ed8" opacity="0.5"/>
<circle cx="129.7" cy="187.5" r="2" fill="#1d4ed8" opacity="0.5"/>
<circle cx="179.2" cy="187.5" r="2" fill="#1d4ed8" opacity="0.5"/>
<circle cx="141.0" cy="187.7" r="2" fill="#1d4ed8" opacity="0.5"/>
<circle cx="119.7" cy="187.8" r="2" fill="#1d4ed8" opacity="0.5"/>
<circle cx="138.0" cy="187.9" r="2" fill="#1d4ed8" opacity="0.5"/>
<circle cx="171.4" cy="188.2" r="2" fill="#1d4ed8" opacity="0.5"/>
<circle cx="118.6" cy="188.2" r="2" fill="#1d4ed8" opacity="0.5"/>
<circle cx="151.8" cy="188.3" r="2" fill="#1d4ed8" opacity="0.5"/>
<circle cx="213.0" cy="188.3" r="2" fill="#1d4ed8" opacity="0.5"/>
<circle cx="132.6" cy="188.3" r="2" fill="#1d4ed8" opacity="0.5"/>
<circle cx="116.9" cy="188.3" r="2" fill="#1d4ed8" opacity="0.5"/>
<circle cx="119.3" cy="188.4" r="2" fill="#1d4ed8" opacity="0.5"/>
<circle cx="148.7" cy="188.4" r="2" fill="#1d4ed8" opacity="0.5"/>
<circle cx="124.7" cy="188.6" r="2" fill="#1d4ed8" opacity="0.5"/>
<circle cx="121.3" cy="188.8" r="2" fill="#1d4ed8" opacity="0.5"/>
<circle cx="188.5" cy="188.8" r="2" fill="#1d4ed8" opacity="0.5"/>
<circle cx="115.7" cy="188.9" r="2" fill="#1d4ed8" opacity="0.5"/>
<circle cx="128.0" cy="188.9" r="2" fill="#1d4ed8" opacity="0.5"/>
<circle cx="121.7" cy="189.0" r="2" fill="#1d4ed8" opacity="0.5"/>
<circle cx="117.0" cy="189.1" r="2" fill="#1d4ed8" opacity="0.5"/>
<circle cx="129.8" cy="189.1" r="2" fill="#1d4ed8" opacity="0.5"/>
<circle cx="125.2" cy="189.2" r="2" fill="#1d4ed8" opacity="0.5"/>
<circle cx="119.8" cy="189.2" r="2" fill="#1d4ed8" opacity="0.5"/>
<circle cx="137.4" cy="189.2" r="2" fill="#1d4ed8" opacity="0.5"/>
<circle cx="118.2" cy="189.3" r="2" fill="#1d4ed8" opacity="0.5"/>
<circle cx="123.7" cy="189.3" r="2" fill="#1d4ed8" opacity="0.5"/>
<circle cx="154.5" cy="189.3" r="2" fill="#1d4ed8" opacity="0.5"/>
<circle cx="232.2" cy="189.3" r="2" fill="#1d4ed8" opacity="0.5"/>
<circle cx="127.0" cy="189.4" r="2" fill="#1d4ed8" opacity="0.5"/>
<circle cx="114.3" cy="189.4" r="2" fill="#1d4ed8" opacity="0.5"/>
<circle cx="159.2" cy="189.4" r="2" fill="#1d4ed8" opacity="0.5"/>
<circle cx="116.0" cy="189.5" r="2" fill="#1d4ed8" opacity="0.5"/>
<circle cx="117.2" cy="189.5" r="2" fill="#1d4ed8" opacity="0.5"/>
<circle cx="138.3" cy="189.6" r="2" fill="#1d4ed8" opacity="0.5"/>
<circle cx="143.6" cy="189.6" r="2" fill="#1d4ed8" opacity="0.5"/>
<circle cx="130.3" cy="189.8" r="2" fill="#1d4ed8" opacity="0.5"/>
<circle cx="179.5" cy="189.8" r="2" fill="#1d4ed8" opacity="0.5"/>
<circle cx="113.7" cy="189.8" r="2" fill="#1d4ed8" opacity="0.5"/>
<circle cx="141.9" cy="189.8" r="2" fill="#1d4ed8" opacity="0.5"/>
<circle cx="115.4" cy="189.8" r="2" fill="#1d4ed8" opacity="0.5"/>
<circle cx="151.2" cy="189.9" r="2" fill="#1d4ed8" opacity="0.5"/>
<circle cx="142.1" cy="190.0" r="2" fill="#1d4ed8" opacity="0.5"/>
<circle cx="116.0" cy="190.0" r="2" fill="#1d4ed8" opacity="0.5"/>
<circle cx="118.3" cy="190.0" r="2" fill="#1d4ed8" opacity="0.5"/>
<circle cx="153.5" cy="190.1" r="2" fill="#1d4ed8" opacity="0.5"/>
<circle cx="112.5" cy="190.1" r="2" fill="#1d4ed8" opacity="0.5"/>
<circle cx="152.4" cy="190.1" r="2" fill="#1d4ed8" opacity="0.5"/>
<circle cx="117.6" cy="190.1" r="2" fill="#1d4ed8" opacity="0.5"/>
<circle cx="205.9" cy="190.1" r="2" fill="#1d4ed8" opacity="0.5"/>
<circle cx="132.5" cy="190.2" r="2" fill="#1d4ed8" opacity="0.5"/>
<circle cx="198.8" cy="190.2" r="2" fill="#1d4ed8" opacity="0.5"/>
<circle cx="130.9" cy="190.2" r="2" fill="#1d4ed8" opacity="0.5"/>
<circle cx="129.8" cy="190.2" r="2" fill="#1d4ed8" opacity="0.5"/>
<circle cx="112.6" cy="190.2" r="2" fill="#1d4ed8" opacity="0.5"/>
<circle cx="115.7" cy="190.2" r="2" fill="#1d4ed8" opacity="0.5"/>
<circle cx="174.9" cy="190.2" r="2" fill="#1d4ed8" opacity="0.5"/>
<circle cx="113.4" cy="190.3" r="2" fill="#1d4ed8" opacity="0.5"/>
<circle cx="134.2" cy="190.3" r="2" fill="#1d4ed8" opacity="0.5"/>
<circle cx="112.1" cy="190.3" r="2" fill="#1d4ed8" opacity="0.5"/>
<circle cx="112.6" cy="190.4" r="2" fill="#1d4ed8" opacity="0.5"/>
<circle cx="157.8" cy="190.4" r="2" fill="#1d4ed8" opacity="0.5"/>
<circle cx="112.0" cy="190.4" r="2" fill="#1d4ed8" opacity="0.5"/>
<circle cx="111.6" cy="190.4" r="2" fill="#1d4ed8" opacity="0.5"/>
<circle cx="111.8" cy="190.4" r="2" fill="#1d4ed8" opacity="0.5"/>
<circle cx="122.7" cy="190.5" r="2" fill="#1d4ed8" opacity="0.5"/>
<circle cx="111.8" cy="190.5" r="2" fill="#1d4ed8" opacity="0.5"/>
<circle cx="112.9" cy="190.5" r="2" fill="#1d4ed8" opacity="0.5"/>
<circle cx="127.6" cy="190.5" r="2" fill="#1d4ed8" opacity="0.5"/>
<circle cx="111.6" cy="190.6" r="2" fill="#1d4ed8" opacity="0.5"/>
<circle cx="111.6" cy="190.6" r="2" fill="#1d4ed8" opacity="0.5"/>
<circle cx="111.1" cy="190.6" r="2" fill="#1d4ed8" opacity="0.5"/>
<circle cx="111.8" cy="190.6" r="2" fill="#1d4ed8" opacity="0.5"/>
<circle cx="111.9" cy="190.6" r="2" fill="#1d4ed8" opacity="0.5"/>
<circle cx="114.0" cy="190.6" r="2" fill="#1d4ed8" opacity="0.5"/>
<circle cx="110.9" cy="190.7" r="2" fill="#1d4ed8" opacity="0.5"/>
<circle cx="123.3" cy="190.7" r="2" fill="#1d4ed8" opacity="0.5"/>
<circle cx="186.1" cy="190.7" r="2" fill="#1d4ed8" opacity="0.5"/>
<circle cx="111.0" cy="190.7" r="2" fill="#1d4ed8" opacity="0.5"/>
<circle cx="110.8" cy="190.7" r="2" fill="#1d4ed8" opacity="0.5"/>
<circle cx="112.9" cy="190.7" r="2" fill="#1d4ed8" opacity="0.5"/>
<circle cx="111.0" cy="190.7" r="2" fill="#1d4ed8" opacity="0.5"/>
<circle cx="111.4" cy="190.7" r="2" fill="#1d4ed8" opacity="0.5"/>
<circle cx="110.7" cy="190.7" r="2" fill="#1d4ed8" opacity="0.5"/>
<circle cx="211.1" cy="190.7" r="2" fill="#1d4ed8" opacity="0.5"/>
<circle cx="123.8" cy="190.7" r="2" fill="#1d4ed8" opacity="0.5"/>
<circle cx="110.7" cy="190.8" r="2" fill="#1d4ed8" opacity="0.5"/>
<circle cx="116.6" cy="190.8" r="2" fill="#1d4ed8" opacity="0.5"/>
<circle cx="110.4" cy="190.8" r="2" fill="#1d4ed8" opacity="0.5"/>
<circle cx="110.4" cy="190.8" r="2" fill="#1d4ed8" opacity="0.5"/>
<circle cx="241.8" cy="190.8" r="2" fill="#1d4ed8" opacity="0.5"/>
<circle cx="112.5" cy="190.8" r="2" fill="#1d4ed8" opacity="0.5"/>
<circle cx="110.6" cy="190.8" r="2" fill="#1d4ed8" opacity="0.5"/>
<circle cx="110.4" cy="190.8" r="2" fill="#1d4ed8" opacity="0.5"/>
<circle cx="112.9" cy="190.8" r="2" fill="#1d4ed8" opacity="0.5"/>
<circle cx="110.6" cy="190.9" r="2" fill="#1d4ed8" opacity="0.5"/>
<circle cx="110.8" cy="190.9" r="2" fill="#1d4ed8" opacity="0.5"/>
<circle cx="112.0" cy="191.0" r="2" fill="#1d4ed8" opacity="0.5"/>
<circle cx="111.9" cy="191.0" r="2" fill="#1d4ed8" opacity="0.5"/>
<circle cx="111.0" cy="191.0" r="2" fill="#1d4ed8" opacity="0.5"/>
<circle cx="111.3" cy="191.0" r="2" fill="#1d4ed8" opacity="0.5"/>
<circle cx="177.1" cy="191.0" r="2" fill="#1d4ed8" opacity="0.5"/>
<circle cx="114.5" cy="191.1" r="2" fill="#1d4ed8" opacity="0.5"/>
<circle cx="110.9" cy="191.1" r="2" fill="#1d4ed8" opacity="0.5"/>
<circle cx="117.4" cy="191.2" r="2" fill="#1d4ed8" opacity="0.5"/>
<circle cx="113.7" cy="191.2" r="2" fill="#1d4ed8" opacity="0.5"/>
<circle cx="112.6" cy="191.2" r="2" fill="#1d4ed8" opacity="0.5"/>
<circle cx="113.1" cy="191.2" r="2" fill="#1d4ed8" opacity="0.5"/>
<circle cx="110.9" cy="191.2" r="2" fill="#1d4ed8" opacity="0.5"/>
<circle cx="198.6" cy="191.2" r="2" fill="#1d4ed8" opacity="0.5"/>
<circle cx="111.3" cy="191.2" r="2" fill="#1d4ed8" opacity="0.5"/>
<circle cx="141.8" cy="191.3" r="2" fill="#1d4ed8" opacity="0.5"/>
<circle cx="206.2" cy="191.3" r="2" fill="#1d4ed8" opacity="0.5"/>
<circle cx="111.9" cy="191.4" r="2" fill="#1d4ed8" opacity="0.5"/>
<circle cx="155.0" cy="191.4" r="2" fill="#1d4ed8" opacity="0.5"/>
<circle cx="139.9" cy="191.4" r="2" fill="#1d4ed8" opacity="0.5"/>
<circle cx="147.2" cy="191.5" r="2" fill="#1d4ed8" opacity="0.5"/>
<circle cx="130.1" cy="191.5" r="2" fill="#1d4ed8" opacity="0.5"/>
<circle cx="122.0" cy="191.5" r="2" fill="#1d4ed8" opacity="0.5"/>
<circle cx="114.4" cy="191.6" r="2" fill="#1d4ed8" opacity="0.5"/>
<circle cx="122.0" cy="191.6" r="2" fill="#1d4ed8" opacity="0.5"/>
<circle cx="112.3" cy="191.6" r="2" fill="#1d4ed8" opacity="0.5"/>
<circle cx="128.3" cy="191.7" r="2" fill="#1d4ed8" opacity="0.5"/>
<circle cx="147.6" cy="191.7" r="2" fill="#1d4ed8" opacity="0.5"/>
<circle cx="123.4" cy="191.7" r="2" fill="#1d4ed8" opacity="0.5"/>
<circle cx="130.1" cy="191.9" r="2" fill="#1d4ed8" opacity="0.5"/>
<circle cx="114.8" cy="191.9" r="2" fill="#1d4ed8" opacity="0.5"/>
<circle cx="117.5" cy="191.9" r="2" fill="#1d4ed8" opacity="0.5"/>
<circle cx="162.5" cy="191.9" r="2" fill="#1d4ed8" opacity="0.5"/>
<circle cx="146.9" cy="191.9" r="2" fill="#1d4ed8" opacity="0.5"/>
<circle cx="125.7" cy="192.0" r="2" fill="#1d4ed8" opacity="0.5"/>
<circle cx="148.9" cy="192.0" r="2" fill="#1d4ed8" opacity="0.5"/>
<circle cx="111.6" cy="192.0" r="2" fill="#1d4ed8" opacity="0.5"/>
<circle cx="137.7" cy="192.1" r="2" fill="#1d4ed8" opacity="0.5"/>
<circle cx="132.9" cy="192.1" r="2" fill="#1d4ed8" opacity="0.5"/>
<circle cx="218.7" cy="192.1" r="2" fill="#1d4ed8" opacity="0.5"/>
<circle cx="111.3" cy="192.3" r="2" fill="#1d4ed8" opacity="0.5"/>
<circle cx="115.8" cy="192.3" r="2" fill="#1d4ed8" opacity="0.5"/>
<circle cx="196.5" cy="192.3" r="2" fill="#1d4ed8" opacity="0.5"/>
<circle cx="114.8" cy="192.3" r="2" fill="#1d4ed8" opacity="0.5"/>
<circle cx="179.2" cy="192.4" r="2" fill="#1d4ed8" opacity="0.5"/>
<circle cx="113.3" cy="192.4" r="2" fill="#1d4ed8" opacity="0.5"/>
<circle cx="146.9" cy="192.5" r="2" fill="#1d4ed8" opacity="0.5"/>
<circle cx="133.9" cy="192.7" r="2" fill="#1d4ed8" opacity="0.5"/>
<circle cx="115.6" cy="192.7" r="2" fill="#1d4ed8" opacity="0.5"/>
<circle cx="132.9" cy="192.7" r="2" fill="#1d4ed8" opacity="0.5"/>
<circle cx="113.1" cy="192.7" r="2" fill="#1d4ed8" opacity="0.5"/>
<circle cx="121.9" cy="192.8" r="2" fill="#1d4ed8" opacity="0.5"/>
<circle cx="118.9" cy="192.9" r="2" fill="#1d4ed8" opacity="0.5"/>
<circle cx="113.6" cy="193.0" r="2" fill="#1d4ed8" opacity="0.5"/>
<circle cx="185.2" cy="193.0" r="2" fill="#1d4ed8" opacity="0.5"/>
<circle cx="119.3" cy="193.1" r="2" fill="#1d4ed8" opacity="0.5"/>
<circle cx="203.0" cy="193.1" r="2" fill="#1d4ed8" opacity="0.5"/>
<circle cx="140.6" cy="193.1" r="2" fill="#1d4ed8" opacity="0.5"/>
<circle cx="110.4" cy="193.2" r="2" fill="#1d4ed8" opacity="0.5"/>
<circle cx="177.6" cy="193.2" r="2" fill="#1d4ed8" opacity="0.5"/>
<circle cx="110.3" cy="193.3" r="2" fill="#1d4ed8" opacity="0.5"/>
<circle cx="240.4" cy="193.3" r="2" fill="#1d4ed8" opacity="0.5"/>
<circle cx="129.3" cy="193.4" r="2" fill="#1d4ed8" opacity="0.5"/>
<circle cx="159.3" cy="193.5" r="2" fill="#1d4ed8" opacity="0.5"/>
<circle cx="165.6" cy="193.5" r="2" fill="#1d4ed8" opacity="0.5"/>
<circle cx="110.4" cy="193.6" r="2" fill="#1d4ed8" opacity="0.5"/>
<circle cx="187.7" cy="193.7" r="2" fill="#1d4ed8" opacity="0.5"/>
<circle cx="112.3" cy="193.8" r="2" fill="#1d4ed8" opacity="0.5"/>
<circle cx="151.9" cy="193.9" r="2" fill="#1d4ed8" opacity="0.5"/>
<circle cx="172.8" cy="193.9" r="2" fill="#1d4ed8" opacity="0.5"/>
<circle cx="125.4" cy="193.9" r="2" fill="#1d4ed8" opacity="0.5"/>
<circle cx="118.7" cy="193.9" r="2" fill="#1d4ed8" opacity="0.5"/>
<circle cx="111.8" cy="193.9" r="2" fill="#1d4ed8" opacity="0.5"/>
<circle cx="110.2" cy="194.1" r="2" fill="#1d4ed8" opacity="0.5"/>
<circle cx="109.6" cy="194.2" r="2" fill="#1d4ed8" opacity="0.5"/>
<circle cx="124.9" cy="194.4" r="2" fill="#1d4ed8" opacity="0.5"/>
<circle cx="125.7" cy="194.5" r="2" fill="#1d4ed8" opacity="0.5"/>
<circle cx="111.9" cy="194.7" r="2" fill="#1d4ed8" opacity="0.5"/>
<circle cx="179.9" cy="194.8" r="2" fill="#1d4ed8" opacity="0.5"/>
<circle cx="114.4" cy="194.8" r="2" fill="#1d4ed8" opacity="0.5"/>
<circle cx="125.1" cy="194.9" r="2" fill="#1d4ed8" opacity="0.5"/>
<circle cx="170.8" cy="195.0" r="2" fill="#1d4ed8" opacity="0.5"/>
<circle cx="135.5" cy="195.1" r="2" fill="#1d4ed8" opacity="0.5"/>
<circle cx="114.0" cy="195.1" r="2" fill="#1d4ed8" opacity="0.5"/>
<circle cx="150.6" cy="195.3" r="2" fill="#1d4ed8" opacity="0.5"/>
<circle cx="199.5" cy="195.4" r="2" fill="#1d4ed8" opacity="0.5"/>
<circle cx="165.1" cy="195.4" r="2" fill="#1d4ed8" opacity="0.5"/>
<circle cx="135.3" cy="195.5" r="2" fill="#1d4ed8" opacity="0.5"/>
<circle cx="215.0" cy="195.5" r="2" fill="#1d4ed8" opacity="0.5"/>
<circle cx="139.2" cy="195.6" r="2" fill="#1d4ed8" opacity="0.5"/>
<circle cx="178.5" cy="195.7" r="2" fill="#1d4ed8" opacity="0.5"/>
<circle cx="137.2" cy="195.7" r="2" fill="#1d4ed8" opacity="0.5"/>
<circle cx="132.9" cy="195.8" r="2" fill="#1d4ed8" opacity="0.5"/>
<circle cx="121.9" cy="196.1" r="2" fill="#1d4ed8" opacity="0.5"/>
<circle cx="114.5" cy="196.1" r="2" fill="#1d4ed8" opacity="0.5"/>
<circle cx="139.6" cy="196.2" r="2" fill="#1d4ed8" opacity="0.5"/>
<circle cx="127.3" cy="196.6" r="2" fill="#1d4ed8" opacity="0.5"/>
<circle cx="126.9" cy="196.7" r="2" fill="#1d4ed8" opacity="0.5"/>
<circle cx="110.9" cy="196.9" r="2" fill="#1d4ed8" opacity="0.5"/>
<circle cx="131.6" cy="196.9" r="2" fill="#1d4ed8" opacity="0.5"/>
<circle cx="122.5" cy="197.0" r="2" fill="#1d4ed8" opacity="0.5"/>
<circle cx="111.7" cy="197.1" r="2" fill="#1d4ed8" opacity="0.5"/>
<circle cx="120.9" cy="197.2" r="2" fill="#1d4ed8" opacity="0.5"/>
<circle cx="190.9" cy="197.2" r="2" fill="#1d4ed8" opacity="0.5"/>
<circle cx="124.4" cy="197.3" r="2" fill="#1d4ed8" opacity="0.5"/>
<circle cx="167.8" cy="197.5" r="2" fill="#1d4ed8" opacity="0.5"/>
<circle cx="111.6" cy="197.7" r="2" fill="#1d4ed8" opacity="0.5"/>
<circle cx="109.3" cy="197.7" r="2" fill="#1d4ed8" opacity="0.5"/>
<circle cx="174.8" cy="197.8" r="2" fill="#1d4ed8" opacity="0.5"/>
<circle cx="111.6" cy="197.9" r="2" fill="#1d4ed8" opacity="0.5"/>
<circle cx="122.0" cy="198.3" r="2" fill="#1d4ed8" opacity="0.5"/>
<circle cx="107.9" cy="198.3" r="2" fill="#1d4ed8" opacity="0.5"/>
<circle cx="253.3" cy="198.5" r="2" fill="#1d4ed8" opacity="0.5"/>
<circle cx="119.0" cy="198.5" r="2" fill="#1d4ed8" opacity="0.5"/>
<circle cx="125.7" cy="198.5" r="2" fill="#1d4ed8" opacity="0.5"/>
<circle cx="161.0" cy="198.8" r="2" fill="#1d4ed8" opacity="0.5"/>
<circle cx="115.9" cy="198.8" r="2" fill="#1d4ed8" opacity="0.5"/>
<circle cx="144.6" cy="198.9" r="2" fill="#1d4ed8" opacity="0.5"/>
<circle cx="201.9" cy="198.9" r="2" fill="#1d4ed8" opacity="0.5"/>
<circle cx="230.7" cy="198.9" r="2" fill="#1d4ed8" opacity="0.5"/>
<circle cx="114.9" cy="199.5" r="2" fill="#1d4ed8" opacity="0.5"/>
<circle cx="129.3" cy="199.5" r="2" fill="#1d4ed8" opacity="0.5"/>
<circle cx="167.0" cy="199.8" r="2" fill="#1d4ed8" opacity="0.5"/>
<circle cx="137.3" cy="200.1" r="2" fill="#1d4ed8" opacity="0.5"/>
<circle cx="136.5" cy="200.2" r="2" fill="#1d4ed8" opacity="0.5"/>
<circle cx="152.8" cy="200.2" r="2" fill="#1d4ed8" opacity="0.5"/>
<circle cx="109.0" cy="200.3" r="2" fill="#1d4ed8" opacity="0.5"/>
<circle cx="158.8" cy="201.2" r="2" fill="#1d4ed8" opacity="0.5"/>
<circle cx="128.9" cy="201.3" r="2" fill="#1d4ed8" opacity="0.5"/>
<circle cx="114.2" cy="201.7" r="2" fill="#1d4ed8" opacity="0.5"/>
<circle cx="134.5" cy="202.2" r="2" fill="#1d4ed8" opacity="0.5"/>
<circle cx="167.5" cy="202.6" r="2" fill="#1d4ed8" opacity="0.5"/>
<circle cx="125.7" cy="202.7" r="2" fill="#1d4ed8" opacity="0.5"/>
<circle cx="119.6" cy="202.8" r="2" fill="#1d4ed8" opacity="0.5"/>
<circle cx="127.8" cy="203.0" r="2" fill="#1d4ed8" opacity="0.5"/>
<circle cx="160.9" cy="203.7" r="2" fill="#1d4ed8" opacity="0.5"/>
<circle cx="152.3" cy="203.8" r="2" fill="#1d4ed8" opacity="0.5"/>
<circle cx="119.2" cy="204.1" r="2" fill="#1d4ed8" opacity="0.5"/>
<circle cx="175.2" cy="204.3" r="2" fill="#1d4ed8" opacity="0.5"/>
<circle cx="203.6" cy="204.4" r="2" fill="#1d4ed8" opacity="0.5"/>
<circle cx="124.0" cy="204.4" r="2" fill="#1d4ed8" opacity="0.5"/>
<circle cx="200.5" cy="204.7" r="2" fill="#1d4ed8" opacity="0.5"/>
<circle cx="111.5" cy="204.8" r="2" fill="#1d4ed8" opacity="0.5"/>
<circle cx="122.8" cy="205.3" r="2" fill="#1d4ed8" opacity="0.5"/>
<circle cx="172.1" cy="205.5" r="2" fill="#1d4ed8" opacity="0.5"/>
<circle cx="121.2" cy="205.7" r="2" fill="#1d4ed8" opacity="0.5"/>
<circle cx="207.0" cy="205.8" r="2" fill="#1d4ed8" opacity="0.5"/>
<circle cx="114.8" cy="205.8" r="2" fill="#1d4ed8" opacity="0.5"/>
<circle cx="207.5" cy="205.9" r="2" fill="#1d4ed8" opacity="0.5"/>
<circle cx="167.7" cy="206.3" r="2" fill="#1d4ed8" opacity="0.5"/>
<circle cx="184.6" cy="206.4" r="2" fill="#1d4ed8" opacity="0.5"/>
<circle cx="155.1" cy="206.5" r="2" fill="#1d4ed8" opacity="0.5"/>
<circle cx="160.2" cy="207.7" r="2" fill="#1d4ed8" opacity="0.5"/>
<circle cx="149.1" cy="208.1" r="2" fill="#1d4ed8" opacity="0.5"/>
<circle cx="152.8" cy="209.2" r="2" fill="#1d4ed8" opacity="0.5"/>
<circle cx="102.3" cy="209.3" r="2" fill="#1d4ed8" opacity="0.5"/>
<circle cx="114.4" cy="209.7" r="2" fill="#1d4ed8" opacity="0.5"/>
<circle cx="118.8" cy="209.7" r="2" fill="#1d4ed8" opacity="0.5"/>
<circle cx="146.5" cy="210.5" r="2" fill="#1d4ed8" opacity="0.5"/>
<circle cx="168.5" cy="211.5" r="2" fill="#1d4ed8" opacity="0.5"/>
<circle cx="150.6" cy="212.2" r="2" fill="#1d4ed8" opacity="0.5"/>
<circle cx="106.7" cy="212.5" r="2" fill="#1d4ed8" opacity="0.5"/>
<circle cx="119.7" cy="213.4" r="2" fill="#1d4ed8" opacity="0.5"/>
<circle cx="133.3" cy="214.8" r="2" fill="#1d4ed8" opacity="0.5"/>
<circle cx="155.6" cy="215.0" r="2" fill="#1d4ed8" opacity="0.5"/>
<circle cx="195.1" cy="215.1" r="2" fill="#1d4ed8" opacity="0.5"/>
<circle cx="184.8" cy="215.7" r="2" fill="#1d4ed8" opacity="0.5"/>
<circle cx="104.0" cy="216.1" r="2" fill="#1d4ed8" opacity="0.5"/>
<circle cx="126.3" cy="216.3" r="2" fill="#1d4ed8" opacity="0.5"/>
<circle cx="123.8" cy="216.4" r="2" fill="#1d4ed8" opacity="0.5"/>
<circle cx="174.6" cy="216.5" r="2" fill="#1d4ed8" opacity="0.5"/>
<circle cx="204.1" cy="217.8" r="2" fill="#1d4ed8" opacity="0.5"/>
<circle cx="201.0" cy="218.0" r="2" fill="#1d4ed8" opacity="0.5"/>
<circle cx="109.0" cy="218.7" r="2" fill="#1d4ed8" opacity="0.5"/>
<circle cx="183.7" cy="219.2" r="2" fill="#1d4ed8" opacity="0.5"/>
<circle cx="135.0" cy="219.4" r="2" fill="#1d4ed8" opacity="0.5"/>
<circle cx="127.4" cy="220.6" r="2" fill="#1d4ed8" opacity="0.5"/>
<circle cx="171.6" cy="220.9" r="2" fill="#1d4ed8" opacity="0.5"/>
<circle cx="175.8" cy="221.0" r="2" fill="#1d4ed8" opacity="0.5"/>
<circle cx="134.7" cy="221.3" r="2" fill="#1d4ed8" opacity="0.5"/>
<circle cx="163.5" cy="221.5" r="2" fill="#1d4ed8" opacity="0.5"/>
<circle cx="138.4" cy="221.8" r="2" fill="#1d4ed8" opacity="0.5"/>
<circle cx="181.3" cy="222.5" r="2" fill="#1d4ed8" opacity="0.5"/>
<circle cx="110.2" cy="223.2" r="2" fill="#1d4ed8" opacity="0.5"/>
<circle cx="158.0" cy="224.1" r="2" fill="#1d4ed8" opacity="0.5"/>
<circle cx="137.0" cy="224.5" r="2" fill="#1d4ed8" opacity="0.5"/>
<circle cx="118.6" cy="224.6" r="2" fill="#1d4ed8" opacity="0.5"/>
<circle cx="169.2" cy="225.0" r="2" fill="#1d4ed8" opacity="0.5"/>
<circle cx="142.7" cy="225.8" r="2" fill="#1d4ed8" opacity="0.5"/>
<circle cx="164.0" cy="228.6" r="2" fill="#1d4ed8" opacity="0.5"/>
<circle cx="170.5" cy="229.4" r="2" fill="#1d4ed8" opacity="0.5"/>
<circle cx="114.3" cy="230.8" r="2" fill="#1d4ed8" opacity="0.5"/>
<circle cx="147.6" cy="231.6" r="2" fill="#1d4ed8" opacity="0.5"/>
<circle cx="138.6" cy="232.4" r="2" fill="#1d4ed8" opacity="0.5"/>
<circle cx="168.0" cy="232.9" r="2" fill="#1d4ed8" opacity="0.5"/>
<circle cx="183.5" cy="236.6" r="2" fill="#1d4ed8" opacity="0.5"/>
<circle cx="153.5" cy="236.9" r="2" fill="#1d4ed8" opacity="0.5"/>
<circle cx="175.4" cy="240.2" r="2" fill="#1d4ed8" opacity="0.5"/>
<circle cx="140.0" cy="242.0" r="2" fill="#1d4ed8" opacity="0.5"/>
<circle cx="134.3" cy="245.0" r="2" fill="#1d4ed8" opacity="0.5"/>
<circle cx="148.3" cy="246.0" r="2" fill="#1d4ed8" opacity="0.5"/>
<circle cx="105.4" cy="253.1" r="2" fill="#1d4ed8" opacity="0.5"/>
<circle cx="168.8" cy="256.5" r="2" fill="#1d4ed8" opacity="0.5"/>
<circle cx="92.7" cy="263.1" r="2" fill="#1d4ed8" opacity="0.5"/>
<circle cx="138.3" cy="282.1" r="2" fill="#1d4ed8" opacity="0.5"/>
<circle cx="102.6" cy="283.8" r="2" fill="#1d4ed8" opacity="0.5"/>
<circle cx="40.0" cy="320.0" r="2" fill="#1d4ed8" opacity="0.5"/>
</svg>