<svg xmlns="http://www.w3.org/2000/svg" width="560" height="340"><rect width="100%" height="100%" fill="#fafafa"/><text x="280" y="22" text-anchor="middle" font-size="13">R2 split-half P shift</text><text x="12" y="170" text-anchor="middle" font-size="11" transform="rotate(-90 12 170)">count</text><rect x="55.0" y="52.0" width="9.2" height="236.0" fill="#1f4e79"/><text x="59.6" y="326" text-anchor="middle" font-size="9">0.0</text><rect x="70.2" y="92.3" width="9.2" height="195.7" fill="#1f4e79"/><text x="74.8" y="326" text-anchor="middle" font-size="9"></text><rect x="85.4" y="151.7" width="9.2" height="136.3" fill="#1f4e79"/><text x="90.0" y="326" text-anchor="middle" font-size="9"></text><rect x="100.6" y="213.5" width="9.2" height="74.5" fill="#1f4e79"/><text x="105.2" y="326" text-anchor="middle" font-size="9"></text><rect x="115.8" y="241.2" width="9.2" height="46.8" fill="#1f4e79"/><text x="120.4" y="326" text-anchor="middle" font-size="9"></text><rect x="131.0" y="254.6" width="9.2" height="33.4" fill="#1f4e79"/><text x="135.6" y="326" text-anchor="middle" font-size="9">3.8</text><rect x="146.2" y="266.0" width="9.2" height="22.0" fill="#1f4e79"/><text x="150.8" y="326" text-anchor="middle" font-size="9"></text><rect x="161.4" y="269.3" width="9.2" height="18.7" fill="#1f4e79"/><text x="166.0" y="326" text-anchor="middle" font-size="9"></text><rect x="176.6" y="276.6" width="9.2" height="11.4" fill="#1f4e79"/><text x="181.2" y="326" text-anchor="middle" font-size="9"></text><rect x="191.8" y="283.9" width="9.2" height="4.1" fill="#1f4e79"/><text x="196.4" y="326" text-anchor="middle" font-size="9"></text><rect x="207.0" y="281.5" width="9.2" height="6.5" fill="#1f4e79"/><text x="211.6" y="326" text-anchor="middle" font-size="9">7.6</text><rect x="222.2" y="283.1" width="9.2" height="4.9" fill="#1f4e79"/><text x="226.8" y="326" text-anchor="middle" font-size="9"></text><rect x="237.4" y="284.7" width="9.2" height="3.3" fill="#1f4e79"/><text x="242.0" y="326" text-anchor="middle" font-size="9"></text><rect x="252.6" y="285.6" width="9.2" height="2.4" fill="#1f4e79"/><text x="257.2" y="326" text-anchor="middle" font-size="9"></text><rect x="267.8" y="285.6" width="9.2" height="2.4" fill="#1f4e79"/><text x="272.4" y="326" text-anchor="middle" font-size="9"></text><rect x="283.0" y="287.6" width="9.2" height="1.0" fill="#1f4e79"/><text x="287.6" y="326" text-anchor="middle" font-size="9">11.5</text><rect x="298.2" y="286.4" width="9.2" height="1.6" fill="#1f4e79"/><text x="302.8" y="326" text-anchor="middle" font-size="9"></text><rect x="313.4" y="286.4" width="9.2" height="1.6" fill="#1f4e79"/><text x="318.0" y="326" text-anchor="middle" font-size="9"></text><rect x="328.6" y="287.6" width="9.2" height="1.0" fill="#1f4e79"/><text x="333.2" y="326" text-anchor="middle" font-size="9"></text><rect x="343.8" y="288.0" width="9.2" height="1.0" fill="#1f4e79"/><text x="348.4" y="326" text-anchor="middle" font-size="9"></text><rect x="359.0" y="286.8" width="9.2" height="1.2" fill="#1f4e79"/><text x="363.6" y="326" text-anchor="middle" font-size="9">15.3</text><rect x="374.2" y="287.2" width="9.2" height="1.0" fill="#1f4e79"/><text x="378.8" y="326" text-anchor="middle" font-size="9"></text><rect x="389.4" y="287.6" width="9.2" height="1.0" fill="#1f4e79"/><text x="394.0" y="326" text-anchor="middle" font-size="9"></text><rect x="404.6" y="287.6" width="9.2" height="1.0" fill="#1f4e79"/><text x="409.2" y="326" text-anchor="middle" font-size="9"></text><rect x="419.8" y="288.0" width="9.2" height="1.0" fill="#1f4e79"/><text x="424.4" y="326" text-anchor="middle" font-size="9"></text><rect x="435.0" y="288.0" width="9.2" height="1.0" fill="#1f4e79"/><text x="439.6" y="326" text-anchor="middle" font-size="9">19.1</text><rect x="450.2" y="288.0" width="9.2" height="1.0" fill="#1f4e79"/><text x="454.8" y="326" text-anchor="middle" font-size="9"></text><rect x="465.4" y="287.6" width="9.2" height="1.0" fill="#1f4e79"/><text x="470.0" y="326" text-anchor="middle" font-size="9"></text><rect x="480.6" y="288.0" width="9.2" height="1.0" fill="#1f4e79"/><text x="485.2" y="326" text-anchor="middle" font-size="9"></text><rect x="495.8" y="287.2" width="9.2" height="1.0" fill="#1f4e79"/><text x="500.4" y="326" text-anchor="middle" font-size="9"></text></svg>