<svg xmlns="http://www.w3.org/2000/svg" width="420" height="320"><text x="48" y="22" font-size="13">2024-25 old vs new rank index</text><circle cx="48" cy="268.7653429602888" r="2" fill="#1f4e79" opacity="0.4"/><circle cx="48.584837545126355" cy="271.1913357400722" r="2" fill="#1f4e79" opacity="0.4"/><circle cx="49.16967509025271" cy="267.1480144404332" r="2" fill="#1f4e79" opacity="0.4"/><circle cx="49.75451263537906" cy="270.3826714801444" r="2" fill="#1f4e79" opacity="0.4"/><circle cx="50.33935018050541" cy="242.07942238267148" r="2" fill="#1f4e79" opacity="0.4"/><circle cx="50.92418772563177" cy="258.2527075812274" r="2" fill="#1f4e79" opacity="0.4"/><circle cx="51.50902527075812" cy="257.44404332129966" r="2" fill="#1f4e79" opacity="0.4"/><circle cx="52.09386281588448" cy="259.87003610108303" r="2" fill="#1f4e79" opacity="0.4"/><circle cx="52.67870036101083" cy="264.3176895306859" r="2" fill="#1f4e79" opacity="0.4"/><circle cx="53.26353790613718" cy="268.3610108303249" r="2" fill="#1f4e79" opacity="0.4"/><circle cx="53.848375451263536" cy="267.5523465703971" r="2" fill="#1f4e79" opacity="0.4"/><circle cx="54.43321299638989" cy="227.92779783393502" r="2" fill="#1f4e79" opacity="0.4"/><circle cx="55.018050541516246" cy="269.1696750902527" r="2" fill="#1f4e79" opacity="0.4"/><circle cx="55.6028880866426" cy="262.7003610108303" r="2" fill="#1f4e79" opacity="0.4"/><circle cx="56.187725631768956" cy="260.67870036101084" r="2" fill="#1f4e79" opacity="0.4"/><circle cx="56.772563176895304" cy="244.90974729241879" r="2" fill="#1f4e79" opacity="0.4"/><circle cx="57.35740072202166" cy="265.12635379061373" r="2" fill="#1f4e79" opacity="0.4"/><circle cx="57.942238267148014" cy="250.57039711191337" r="2" fill="#1f4e79" opacity="0.4"/><circle cx="58.52707581227437" cy="261.08303249097474" r="2" fill="#1f4e79" opacity="0.4"/><circle cx="59.111913357400724" cy="261.48736462093865" r="2" fill="#1f4e79" opacity="0.4"/><circle cx="59.69675090252707" cy="255.42238267148014" r="2" fill="#1f4e79" opacity="0.4"/><circle cx="60.28158844765343" cy="244.10108303249098" r="2" fill="#1f4e79" opacity="0.4"/><circle cx="60.86642599277978" cy="253.40072202166064" r="2" fill="#1f4e79" opacity="0.4"/><circle cx="61.45126353790614" cy="269.57400722021663" r="2" fill="#1f4e79" opacity="0.4"/><circle cx="62.03610108303249" cy="258.6570397111913" r="2" fill="#1f4e79" opacity="0.4"/><circle cx="62.62093862815885" cy="256.23104693140795" r="2" fill="#1f4e79" opacity="0.4"/><circle cx="63.2057761732852" cy="243.29241877256317" r="2" fill="#1f4e79" opacity="0.4"/><circle cx="63.79061371841155" cy="257.84837545126356" r="2" fill="#1f4e79" opacity="0.4"/><circle cx="64.37545126353791" cy="248.14440433212997" r="2" fill="#1f4e79" opacity="0.4"/><circle cx="64.96028880866426" cy="235.6101083032491" r="2" fill="#1f4e79" opacity="0.4"/><circle cx="65.54512635379061" cy="247.74007220216606" r="2" fill="#1f4e79" opacity="0.4"/><circle cx="66.12996389891697" cy="215.39350180505414" r="2" fill="#1f4e79" opacity="0.4"/><circle cx="66.71480144404332" cy="267.956678700361" r="2" fill="#1f4e79" opacity="0.4"/><circle cx="67.29963898916968" cy="209.73285198555956" r="2" fill="#1f4e79" opacity="0.4"/><circle cx="67.88447653429603" cy="238.0361010830325" r="2" fill="#1f4e79" opacity="0.4"/><circle cx="68.46931407942239" cy="221.86281588447653" r="2" fill="#1f4e79" opacity="0.4"/><circle cx="69.05415162454874" cy="260.27436823104694" r="2" fill="#1f4e79" opacity="0.4"/><circle cx="69.63898916967509" cy="263.1046931407942" r="2" fill="#1f4e79" opacity="0.4"/><circle cx="70.22382671480145" cy="235.2057761732852" r="2" fill="#1f4e79" opacity="0.4"/><circle cx="70.8086642599278" cy="218.62815884476535" r="2" fill="#1f4e79" opacity="0.4"/><circle cx="71.39350180505414" cy="254.20938628158845" r="2" fill="#1f4e79" opacity="0.4"/><circle cx="71.9783393501805" cy="210.13718411552347" r="2" fill="#1f4e79" opacity="0.4"/><circle cx="72.56317689530685" cy="263.5090252707581" r="2" fill="#1f4e79" opacity="0.4"/><circle cx="73.14801444043322" cy="249.35740072202165" r="2" fill="#1f4e79" opacity="0.4"/><circle cx="73.73285198555956" cy="225.09747292418774" r="2" fill="#1f4e79" opacity="0.4"/><circle cx="74.31768953068593" cy="232.3754512635379" r="2" fill="#1f4e79" opacity="0.4"/><circle cx="74.90252707581227" cy="242.8880866425993" r="2" fill="#1f4e79" opacity="0.4"/><circle cx="75.48736462093862" cy="227.1191335740072" r="2" fill="#1f4e79" opacity="0.4"/><circle cx="76.07220216606498" cy="230.35379061371842" r="2" fill="#1f4e79" opacity="0.4"/><circle cx="76.65703971119133" cy="262.2960288808664" r="2" fill="#1f4e79" opacity="0.4"/><circle cx="77.2418772563177" cy="236.4187725631769" r="2" fill="#1f4e79" opacity="0.4"/><circle cx="77.82671480144404" cy="206.09386281588448" r="2" fill="#1f4e79" opacity="0.4"/><circle cx="78.4115523465704" cy="150.29602888086643" r="2" fill="#1f4e79" opacity="0.4"/><circle cx="78.99638989169675" cy="244.50541516245488" r="2" fill="#1f4e79" opacity="0.4"/><circle cx="79.5812274368231" cy="228.73646209386283" r="2" fill="#1f4e79" opacity="0.4"/><circle cx="80.16606498194946" cy="238.84476534296027" r="2" fill="#1f4e79" opacity="0.4"/><circle cx="80.75090252707581" cy="263.913357400722" r="2" fill="#1f4e79" opacity="0.4"/><circle cx="81.33574007220217" cy="255.82671480144404" r="2" fill="#1f4e79" opacity="0.4"/><circle cx="81.92057761732852" cy="231.971119133574" r="2" fill="#1f4e79" opacity="0.4"/><circle cx="82.50541516245488" cy="239.24909747292418" r="2" fill="#1f4e79" opacity="0.4"/><circle cx="83.09025270758123" cy="266.3393501805054" r="2" fill="#1f4e79" opacity="0.4"/><circle cx="83.67509025270758" cy="254.61371841155236" r="2" fill="#1f4e79" opacity="0.4"/><circle cx="84.25992779783394" cy="154.3393501805054" r="2" fill="#1f4e79" opacity="0.4"/><circle cx="84.8447653429603" cy="223.88447653429603" r="2" fill="#1f4e79" opacity="0.4"/><circle cx="85.42960288808663" cy="253.80505415162455" r="2" fill="#1f4e79" opacity="0.4"/><circle cx="86.014440433213" cy="233.5884476534296" r="2" fill="#1f4e79" opacity="0.4"/><circle cx="86.59927797833936" cy="231.1624548736462" r="2" fill="#1f4e79" opacity="0.4"/><circle cx="87.1841155234657" cy="143.42238267148014" r="2" fill="#1f4e79" opacity="0.4"/><circle cx="87.76895306859205" cy="145.84837545126354" r="2" fill="#1f4e79" opacity="0.4"/><circle cx="88.35379061371842" cy="236.8231046931408" r="2" fill="#1f4e79" opacity="0.4"/><circle cx="88.93862815884476" cy="208.92418772563178" r="2" fill="#1f4e79" opacity="0.4"/><circle cx="89.52346570397111" cy="232.77978339350182" r="2" fill="#1f4e79" opacity="0.4"/><circle cx="90.10830324909747" cy="169.29963898916967" r="2" fill="#1f4e79" opacity="0.4"/><circle cx="90.69314079422384" cy="198.4115523465704" r="2" fill="#1f4e79" opacity="0.4"/><circle cx="91.27797833935018" cy="259.0613718411552" r="2" fill="#1f4e79" opacity="0.4"/><circle cx="91.86281588447653" cy="126.8447653429603" r="2" fill="#1f4e79" opacity="0.4"/><circle cx="92.4476534296029" cy="248.54873646209387" r="2" fill="#1f4e79" opacity="0.4"/><circle cx="93.03249097472924" cy="212.56317689530687" r="2" fill="#1f4e79" opacity="0.4"/><circle cx="93.61732851985559" cy="237.6317689530686" r="2" fill="#1f4e79" opacity="0.4"/><circle cx="94.20216606498195" cy="269.97833935018053" r="2" fill="#1f4e79" opacity="0.4"/><circle cx="94.7870036101083" cy="211.75451263537906" r="2" fill="#1f4e79" opacity="0.4"/><circle cx="95.37184115523465" cy="220.24548736462094" r="2" fill="#1f4e79" opacity="0.4"/><circle cx="95.95667870036101" cy="197.6028880866426" r="2" fill="#1f4e79" opacity="0.4"/><circle cx="96.54151624548737" cy="184.25992779783394" r="2" fill="#1f4e79" opacity="0.4"/><circle cx="97.1263537906137" cy="198.8158844765343" r="2" fill="#1f4e79" opacity="0.4"/><circle cx="97.71119133574007" cy="90.8592057761733" r="2" fill="#1f4e79" opacity="0.4"/><circle cx="98.29602888086643" cy="233.9927797833935" r="2" fill="#1f4e79" opacity="0.4"/><circle cx="98.88086642599279" cy="217.01083032490976" r="2" fill="#1f4e79" opacity="0.4"/><circle cx="99.46570397111913" cy="237.22743682310468" r="2" fill="#1f4e79" opacity="0.4"/><circle cx="100.05054151624549" cy="194.3682310469314" r="2" fill="#1f4e79" opacity="0.4"/><circle cx="100.63537906137185" cy="252.18772563176896" r="2" fill="#1f4e79" opacity="0.4"/><circle cx="101.2202166064982" cy="250.97472924187724" r="2" fill="#1f4e79" opacity="0.4"/><circle cx="101.80505415162455" cy="217.81949458483754" r="2" fill="#1f4e79" opacity="0.4"/><circle cx="102.38989169675091" cy="166.87364620938627" r="2" fill="#1f4e79" opacity="0.4"/><circle cx="102.97472924187726" cy="219.43682310469313" r="2" fill="#1f4e79" opacity="0.4"/><circle cx="103.5595667870036" cy="247.33574007220216" r="2" fill="#1f4e79" opacity="0.4"/><circle cx="104.14440433212997" cy="188.70758122743683" r="2" fill="#1f4e79" opacity="0.4"/><circle cx="104.72924187725631" cy="233.18411552346572" r="2" fill="#1f4e79" opacity="0.4"/><circle cx="105.31407942238266" cy="164.043321299639" r="2" fill="#1f4e79" opacity="0.4"/><circle cx="105.89891696750902" cy="227.5234657039711" r="2" fill="#1f4e79" opacity="0.4"/><circle cx="106.48375451263539" cy="236.014440433213" r="2" fill="#1f4e79" opacity="0.4"/><circle cx="107.06859205776173" cy="252.99638989169677" r="2" fill="#1f4e79" opacity="0.4"/><circle cx="107.65342960288808" cy="251.78339350180505" r="2" fill="#1f4e79" opacity="0.4"/><circle cx="108.23826714801444" cy="266.7436823104693" r="2" fill="#1f4e79" opacity="0.4"/><circle cx="108.82310469314079" cy="251.37906137184115" r="2" fill="#1f4e79" opacity="0.4"/><circle cx="109.40794223826714" cy="181.42960288808666" r="2" fill="#1f4e79" opacity="0.4"/><circle cx="109.9927797833935" cy="225.90613718411552" r="2" fill="#1f4e79" opacity="0.4"/><circle cx="110.57761732851986" cy="199.22021660649818" r="2" fill="#1f4e79" opacity="0.4"/><circle cx="111.1624548736462" cy="130.8880866425993" r="2" fill="#1f4e79" opacity="0.4"/><circle cx="111.74729241877256" cy="67.81227436823104" r="2" fill="#1f4e79" opacity="0.4"/><circle cx="112.33212996389891" cy="271.5956678700361" r="2" fill="#1f4e79" opacity="0.4"/><circle cx="112.91696750902527" cy="156.76534296028882" r="2" fill="#1f4e79" opacity="0.4"/><circle cx="113.50180505415162" cy="245.71841155234657" r="2" fill="#1f4e79" opacity="0.4"/><circle cx="114.08664259927798" cy="208.11552346570397" r="2" fill="#1f4e79" opacity="0.4"/><circle cx="114.67148014440434" cy="256.63537906137185" r="2" fill="#1f4e79" opacity="0.4"/><circle cx="115.25631768953069" cy="200.4332129963899" r="2" fill="#1f4e79" opacity="0.4"/><circle cx="115.84115523465704" cy="226.31046931407943" r="2" fill="#1f4e79" opacity="0.4"/><circle cx="116.4259927797834" cy="151.50902527075812" r="2" fill="#1f4e79" opacity="0.4"/><circle cx="117.01083032490975" cy="150.7003610108303" r="2" fill="#1f4e79" opacity="0.4"/><circle cx="117.5956678700361" cy="240.4620938628159" r="2" fill="#1f4e79" opacity="0.4"/><circle cx="118.18050541516246" cy="114.71480144404333" r="2" fill="#1f4e79" opacity="0.4"/><circle cx="118.7653429602888" cy="238.4404332129964" r="2" fill="#1f4e79" opacity="0.4"/><circle cx="119.35018050541515" cy="228.33212996389892" r="2" fill="#1f4e79" opacity="0.4"/><circle cx="119.93501805054152" cy="225.50180505415162" r="2" fill="#1f4e79" opacity="0.4"/><circle cx="120.51985559566786" cy="192.75090252707582" r="2" fill="#1f4e79" opacity="0.4"/><circle cx="121.10469314079423" cy="89.64620938628158" r="2" fill="#1f4e79" opacity="0.4"/><circle cx="121.68953068592059" cy="214.58483754512636" r="2" fill="#1f4e79" opacity="0.4"/><circle cx="122.27436823104694" cy="226.71480144404333" r="2" fill="#1f4e79" opacity="0.4"/><circle cx="122.85920577617328" cy="195.1768953068592" r="2" fill="#1f4e79" opacity="0.4"/><circle cx="123.44404332129965" cy="202.85920577617327" r="2" fill="#1f4e79" opacity="0.4"/><circle cx="124.028880866426" cy="186.68592057761734" r="2" fill="#1f4e79" opacity="0.4"/><circle cx="124.61371841155234" cy="221.45848375451266" r="2" fill="#1f4e79" opacity="0.4"/><circle cx="125.1985559566787" cy="229.5451263537906" r="2" fill="#1f4e79" opacity="0.4"/><circle cx="125.78339350180505" cy="234.3971119133574" r="2" fill="#1f4e79" opacity="0.4"/><circle cx="126.36823104693141" cy="211.35018050541515" r="2" fill="#1f4e79" opacity="0.4"/><circle cx="126.95306859205776" cy="242.4837545126354" r="2" fill="#1f4e79" opacity="0.4"/><circle cx="127.53790613718411" cy="205.68953068592057" r="2" fill="#1f4e79" opacity="0.4"/><circle cx="128.12274368231047" cy="222.67148014440434" r="2" fill="#1f4e79" opacity="0.4"/><circle cx="128.70758122743683" cy="212.15884476534296" r="2" fill="#1f4e79" opacity="0.4"/><circle cx="129.29241877256317" cy="257.03971119133575" r="2" fill="#1f4e79" opacity="0.4"/><circle cx="129.87725631768953" cy="191.5379061371841" r="2" fill="#1f4e79" opacity="0.4"/><circle cx="130.4620938628159" cy="255.01805054151623" r="2" fill="#1f4e79" opacity="0.4"/><circle cx="131.04693140794222" cy="230.7581227436823" r="2" fill="#1f4e79" opacity="0.4"/><circle cx="131.6317689530686" cy="179.81227436823104" r="2" fill="#1f4e79" opacity="0.4"/><circle cx="132.21660649819495" cy="177.79061371841155" r="2" fill="#1f4e79" opacity="0.4"/><circle cx="132.80144404332128" cy="169.70397111913357" r="2" fill="#1f4e79" opacity="0.4"/><circle cx="133.38628158844767" cy="241.27075812274367" r="2" fill="#1f4e79" opacity="0.4"/><circle cx="133.971119133574" cy="204.4765342960289" r="2" fill="#1f4e79" opacity="0.4"/><circle cx="134.55595667870037" cy="246.93140794223828" r="2" fill="#1f4e79" opacity="0.4"/><circle cx="135.14079422382673" cy="231.5667870036101" r="2" fill="#1f4e79" opacity="0.4"/><circle cx="135.72563176895306" cy="135.33574007220216" r="2" fill="#1f4e79" opacity="0.4"/><circle cx="136.3104693140794" cy="185.87725631768953" r="2" fill="#1f4e79" opacity="0.4"/><circle cx="136.8953068592058" cy="248.95306859205778" r="2" fill="#1f4e79" opacity="0.4"/><circle cx="137.48014440433212" cy="216.60649819494586" r="2" fill="#1f4e79" opacity="0.4"/><circle cx="138.06498194945848" cy="105.81949458483754" r="2" fill="#1f4e79" opacity="0.4"/><circle cx="138.64981949458485" cy="218.22382671480145" r="2" fill="#1f4e79" opacity="0.4"/><circle cx="139.23465703971118" cy="183.85559566787003" r="2" fill="#1f4e79" opacity="0.4"/><circle cx="139.81949458483754" cy="149.48736462093862" r="2" fill="#1f4e79" opacity="0.4"/><circle cx="140.4043321299639" cy="155.1480144404332" r="2" fill="#1f4e79" opacity="0.4"/><circle cx="140.98916967509027" cy="170.10830324909747" r="2" fill="#1f4e79" opacity="0.4"/><circle cx="141.5740072202166" cy="261.8916967509025" r="2" fill="#1f4e79" opacity="0.4"/><circle cx="142.15884476534296" cy="246.12274368231047" r="2" fill="#1f4e79" opacity="0.4"/><circle cx="142.7436823104693" cy="224.28880866425993" r="2" fill="#1f4e79" opacity="0.4"/><circle cx="143.3285198555957" cy="132.50541516245488" r="2" fill="#1f4e79" opacity="0.4"/><circle cx="143.91335740072202" cy="141.80505415162455" r="2" fill="#1f4e79" opacity="0.4"/><circle cx="144.49819494584838" cy="270.7870036101083" r="2" fill="#1f4e79" opacity="0.4"/><circle cx="145.08303249097474" cy="165.2563176895307" r="2" fill="#1f4e79" opacity="0.4"/><circle cx="145.66787003610108" cy="174.55595667870034" r="2" fill="#1f4e79" opacity="0.4"/><circle cx="146.2527075812274" cy="157.5740072202166" r="2" fill="#1f4e79" opacity="0.4"/><circle cx="146.8375451263538" cy="117.1407942238267" r="2" fill="#1f4e79" opacity="0.4"/><circle cx="147.42238267148014" cy="201.64620938628158" r="2" fill="#1f4e79" opacity="0.4"/><circle cx="148.0072202166065" cy="191.942238267148" r="2" fill="#1f4e79" opacity="0.4"/><circle cx="148.59205776173286" cy="162.42599277978337" r="2" fill="#1f4e79" opacity="0.4"/><circle cx="149.1768953068592" cy="229.14079422382673" r="2" fill="#1f4e79" opacity="0.4"/><circle cx="149.76173285198558" cy="109.05415162454872" r="2" fill="#1f4e79" opacity="0.4"/><circle cx="150.34657039711192" cy="195.985559566787" r="2" fill="#1f4e79" opacity="0.4"/><circle cx="150.93140794223825" cy="128.057761732852" r="2" fill="#1f4e79" opacity="0.4"/><circle cx="151.5162454873646" cy="184.66425992779784" r="2" fill="#1f4e79" opacity="0.4"/><circle cx="152.10108303249098" cy="207.71119133574007" r="2" fill="#1f4e79" opacity="0.4"/><circle cx="152.6859205776173" cy="200.028880866426" r="2" fill="#1f4e79" opacity="0.4"/><circle cx="153.2707581227437" cy="133.71841155234657" r="2" fill="#1f4e79" opacity="0.4"/><circle cx="153.85559566787003" cy="272" r="2" fill="#1f4e79" opacity="0.4"/><circle cx="154.4404332129964" cy="210.54151624548734" r="2" fill="#1f4e79" opacity="0.4"/><circle cx="155.02527075812273" cy="96.92418772563178" r="2" fill="#1f4e79" opacity="0.4"/><circle cx="155.6101083032491" cy="164.8519855595668" r="2" fill="#1f4e79" opacity="0.4"/><circle cx="156.19494584837545" cy="193.15523465703973" r="2" fill="#1f4e79" opacity="0.4"/><circle cx="156.77978339350182" cy="173.74729241877256" r="2" fill="#1f4e79" opacity="0.4"/><circle cx="157.36462093862815" cy="265.53068592057764" r="2" fill="#1f4e79" opacity="0.4"/><circle cx="157.9494584837545" cy="178.19494584837545" r="2" fill="#1f4e79" opacity="0.4"/><circle cx="158.53429602888087" cy="155.5523465703971" r="2" fill="#1f4e79" opacity="0.4"/><circle cx="159.1191335740072" cy="199.6245487364621" r="2" fill="#1f4e79" opacity="0.4"/><circle cx="159.7039711191336" cy="136.54873646209384" r="2" fill="#1f4e79" opacity="0.4"/><circle cx="160.28880866425993" cy="197.1985559566787" r="2" fill="#1f4e79" opacity="0.4"/><circle cx="160.87364620938627" cy="229.9494584837545" r="2" fill="#1f4e79" opacity="0.4"/><circle cx="161.45848375451263" cy="215.79783393501805" r="2" fill="#1f4e79" opacity="0.4"/><circle cx="162.043321299639" cy="202.0505415162455" r="2" fill="#1f4e79" opacity="0.4"/><circle cx="162.62815884476532" cy="223.48014440433212" r="2" fill="#1f4e79" opacity="0.4"/><circle cx="163.2129963898917" cy="115.92779783393502" r="2" fill="#1f4e79" opacity="0.4"/><circle cx="163.79783393501805" cy="185.47292418772565" r="2" fill="#1f4e79" opacity="0.4"/><circle cx="164.3826714801444" cy="223.07581227436822" r="2" fill="#1f4e79" opacity="0.4"/><circle cx="164.96750902527077" cy="178.59927797833936" r="2" fill="#1f4e79" opacity="0.4"/><circle cx="165.5523465703971" cy="220.64981949458485" r="2" fill="#1f4e79" opacity="0.4"/><circle cx="166.13718411552347" cy="76.30324909747293" r="2" fill="#1f4e79" opacity="0.4"/><circle cx="166.72202166064983" cy="153.12635379061373" r="2" fill="#1f4e79" opacity="0.4"/><circle cx="167.30685920577616" cy="179.40794223826714" r="2" fill="#1f4e79" opacity="0.4"/><circle cx="167.89169675090253" cy="182.64259927797832" r="2" fill="#1f4e79" opacity="0.4"/><circle cx="168.4765342960289" cy="147.87003610108303" r="2" fill="#1f4e79" opacity="0.4"/><circle cx="169.06137184115522" cy="189.92057761732852" r="2" fill="#1f4e79" opacity="0.4"/><circle cx="169.64620938628158" cy="221.05415162454875" r="2" fill="#1f4e79" opacity="0.4"/><circle cx="170.23104693140795" cy="156.36101083032491" r="2" fill="#1f4e79" opacity="0.4"/><circle cx="170.81588447653428" cy="173.34296028880868" r="2" fill="#1f4e79" opacity="0.4"/><circle cx="171.40072202166064" cy="202.45487364620936" r="2" fill="#1f4e79" opacity="0.4"/><circle cx="171.985559566787" cy="205.28519855595667" r="2" fill="#1f4e79" opacity="0.4"/><circle cx="172.57039711191337" cy="234.80144404332128" r="2" fill="#1f4e79" opacity="0.4"/><circle cx="173.15523465703973" cy="219.84115523465704" r="2" fill="#1f4e79" opacity="0.4"/><circle cx="173.74007220216606" cy="196.7942238267148" r="2" fill="#1f4e79" opacity="0.4"/><circle cx="174.3249097472924" cy="151.91335740072202" r="2" fill="#1f4e79" opacity="0.4"/><circle cx="174.90974729241879" cy="191.1335740072202" r="2" fill="#1f4e79" opacity="0.4"/><circle cx="175.49458483754512" cy="214.18050541516246" r="2" fill="#1f4e79" opacity="0.4"/><circle cx="176.07942238267148" cy="193.9638989169675" r="2" fill="#1f4e79" opacity="0.4"/><circle cx="176.66425992779781" cy="153.9350180505415" r="2" fill="#1f4e79" opacity="0.4"/><circle cx="177.24909747292418" cy="154.7436823104693" r="2" fill="#1f4e79" opacity="0.4"/><circle cx="177.83393501805054" cy="152.72202166064983" r="2" fill="#1f4e79" opacity="0.4"/><circle cx="178.4187725631769" cy="203.66787003610108" r="2" fill="#1f4e79" opacity="0.4"/><circle cx="179.00361010830323" cy="183.04693140794222" r="2" fill="#1f4e79" opacity="0.4"/><circle cx="179.5884476534296" cy="224.69314079422384" r="2" fill="#1f4e79" opacity="0.4"/><circle cx="180.17328519855596" cy="160.8086642599278" r="2" fill="#1f4e79" opacity="0.4"/><circle cx="180.75812274368232" cy="139.37906137184115" r="2" fill="#1f4e79" opacity="0.4"/><circle cx="181.34296028880868" cy="214.98916967509024" r="2" fill="#1f4e79" opacity="0.4"/><circle cx="181.92779783393502" cy="207.30685920577616" r="2" fill="#1f4e79" opacity="0.4"/><circle cx="182.51263537906138" cy="121.5884476534296" r="2" fill="#1f4e79" opacity="0.4"/><circle cx="183.0974729241877" cy="110.26714801444041" r="2" fill="#1f4e79" opacity="0.4"/><circle cx="183.68231046931407" cy="201.2418772563177" r="2" fill="#1f4e79" opacity="0.4"/><circle cx="184.26714801444044" cy="190.3249097472924" r="2" fill="#1f4e79" opacity="0.4"/><circle cx="184.8519855595668" cy="240.8664259927798" r="2" fill="#1f4e79" opacity="0.4"/><circle cx="185.43682310469313" cy="139.78339350180505" r="2" fill="#1f4e79" opacity="0.4"/><circle cx="186.0216606498195" cy="158.3826714801444" r="2" fill="#1f4e79" opacity="0.4"/><circle cx="186.60649819494583" cy="265.93501805054154" r="2" fill="#1f4e79" opacity="0.4"/><circle cx="187.1913357400722" cy="102.98916967509027" r="2" fill="#1f4e79" opacity="0.4"/><circle cx="187.77617328519855" cy="112.28880866425993" r="2" fill="#1f4e79" opacity="0.4"/><circle cx="188.36101083032491" cy="159.1913357400722" r="2" fill="#1f4e79" opacity="0.4"/><circle cx="188.94584837545128" cy="140.59205776173286" r="2" fill="#1f4e79" opacity="0.4"/><circle cx="189.5306859205776" cy="138.97472924187724" r="2" fill="#1f4e79" opacity="0.4"/><circle cx="190.11552346570397" cy="239.65342960288808" r="2" fill="#1f4e79" opacity="0.4"/><circle cx="190.7003610108303" cy="216.20216606498195" r="2" fill="#1f4e79" opacity="0.4"/><circle cx="191.28519855595667" cy="174.96028880866425" r="2" fill="#1f4e79" opacity="0.4"/><circle cx="191.87003610108303" cy="210.94584837545125" r="2" fill="#1f4e79" opacity="0.4"/><circle cx="192.4548736462094" cy="189.5162454873646" r="2" fill="#1f4e79" opacity="0.4"/><circle cx="193.03971119133573" cy="177.38628158844764" r="2" fill="#1f4e79" opacity="0.4"/><circle cx="193.6245487364621" cy="203.26353790613717" r="2" fill="#1f4e79" opacity="0.4"/><circle cx="194.20938628158845" cy="172.53429602888087" r="2" fill="#1f4e79" opacity="0.4"/><circle cx="194.7942238267148" cy="264.72202166064983" r="2" fill="#1f4e79" opacity="0.4"/><circle cx="195.37906137184117" cy="69.02527075812276" r="2" fill="#1f4e79" opacity="0.4"/><circle cx="195.9638989169675" cy="165.6606498194946" r="2" fill="#1f4e79" opacity="0.4"/><circle cx="196.54873646209387" cy="198.0072202166065" r="2" fill="#1f4e79" opacity="0.4"/><circle cx="197.1335740072202" cy="245.31407942238266" r="2" fill="#1f4e79" opacity="0.4"/><circle cx="197.71841155234657" cy="157.9783393501805" r="2" fill="#1f4e79" opacity="0.4"/><circle cx="198.30324909747293" cy="187.89891696750902" r="2" fill="#1f4e79" opacity="0.4"/><circle cx="198.8880866425993" cy="181.02527075812276" r="2" fill="#1f4e79" opacity="0.4"/><circle cx="199.47292418772562" cy="168.49097472924188" r="2" fill="#1f4e79" opacity="0.4"/><circle cx="200.057761732852" cy="143.82671480144404" r="2" fill="#1f4e79" opacity="0.4"/><circle cx="200.64259927797832" cy="241.67509025270758" r="2" fill="#1f4e79" opacity="0.4"/><circle cx="201.22743682310468" cy="189.11191335740074" r="2" fill="#1f4e79" opacity="0.4"/><circle cx="201.81227436823104" cy="249.76173285198556" r="2" fill="#1f4e79" opacity="0.4"/><circle cx="202.3971119133574" cy="219.03249097472923" r="2" fill="#1f4e79" opacity="0.4"/><circle cx="202.98194945848377" cy="193.55956678700363" r="2" fill="#1f4e79" opacity="0.4"/><circle cx="203.5667870036101" cy="85.60288808664262" r="2" fill="#1f4e79" opacity="0.4"/><circle cx="204.15162454873646" cy="162.83032490974728" r="2" fill="#1f4e79" opacity="0.4"/><circle cx="204.73646209386283" cy="162.0216606498195" r="2" fill="#1f4e79" opacity="0.4"/><circle cx="205.3212996389892" cy="182.23826714801444" r="2" fill="#1f4e79" opacity="0.4"/><circle cx="205.90613718411552" cy="200.8375451263538" r="2" fill="#1f4e79" opacity="0.4"/><circle cx="206.49097472924188" cy="183.45126353790613" r="2" fill="#1f4e79" opacity="0.4"/><circle cx="207.07581227436822" cy="170.91696750902528" r="2" fill="#1f4e79" opacity="0.4"/><circle cx="207.66064981949458" cy="171.32129963898916" r="2" fill="#1f4e79" opacity="0.4"/><circle cx="208.24548736462094" cy="111.88447653429603" r="2" fill="#1f4e79" opacity="0.4"/><circle cx="208.8303249097473" cy="206.49819494584838" r="2" fill="#1f4e79" opacity="0.4"/><circle cx="209.41516245487364" cy="179.00361010830323" r="2" fill="#1f4e79" opacity="0.4"/><circle cx="210" cy="213.77617328519855" r="2" fill="#1f4e79" opacity="0.4"/><circle cx="210.58483754512636" cy="87.22021660649821" r="2" fill="#1f4e79" opacity="0.4"/><circle cx="211.16967509025272" cy="252.59205776173286" r="2" fill="#1f4e79" opacity="0.4"/><circle cx="211.75451263537906" cy="246.52707581227438" r="2" fill="#1f4e79" opacity="0.4"/><circle cx="212.33935018050542" cy="123.20577617328519" r="2" fill="#1f4e79" opacity="0.4"/><circle cx="212.92418772563178" cy="100.56317689530687" r="2" fill="#1f4e79" opacity="0.4"/><circle cx="213.50902527075814" cy="157.16967509025272" r="2" fill="#1f4e79" opacity="0.4"/><circle cx="214.09386281588445" cy="195.5812274368231" r="2" fill="#1f4e79" opacity="0.4"/><circle cx="214.6787003610108" cy="69.42960288808666" r="2" fill="#1f4e79" opacity="0.4"/><circle cx="215.26353790613717" cy="172.93862815884478" r="2" fill="#1f4e79" opacity="0.4"/><circle cx="215.84837545126354" cy="50.021660649819495" r="2" fill="#1f4e79" opacity="0.4"/><circle cx="216.43321299638987" cy="196.3898916967509" r="2" fill="#1f4e79" opacity="0.4"/><circle cx="217.01805054151623" cy="208.51985559566788" r="2" fill="#1f4e79" opacity="0.4"/><circle cx="217.6028880866426" cy="146.65703971119135" r="2" fill="#1f4e79" opacity="0.4"/><circle cx="218.18772563176896" cy="171.72563176895306" r="2" fill="#1f4e79" opacity="0.4"/><circle cx="218.77256317689532" cy="138.57039711191334" r="2" fill="#1f4e79" opacity="0.4"/><circle cx="219.35740072202165" cy="243.69675090252707" r="2" fill="#1f4e79" opacity="0.4"/><circle cx="219.942238267148" cy="122.39711191335738" r="2" fill="#1f4e79" opacity="0.4"/><circle cx="220.52707581227438" cy="107.03249097472923" r="2" fill="#1f4e79" opacity="0.4"/><circle cx="221.11191335740074" cy="144.23104693140795" r="2" fill="#1f4e79" opacity="0.4"/><circle cx="221.69675090252707" cy="160.4043321299639" r="2" fill="#1f4e79" opacity="0.4"/><circle cx="222.28158844765343" cy="180.21660649819495" r="2" fill="#1f4e79" opacity="0.4"/><circle cx="222.8664259927798" cy="167.68231046931407" r="2" fill="#1f4e79" opacity="0.4"/><circle cx="223.45126353790616" cy="105.41516245487364" r="2" fill="#1f4e79" opacity="0.4"/><circle cx="224.03610108303246" cy="128.4620938628159" r="2" fill="#1f4e79" opacity="0.4"/><circle cx="224.62093862815883" cy="180.62093862815885" r="2" fill="#1f4e79" opacity="0.4"/><circle cx="225.2057761732852" cy="168.8953068592058" r="2" fill="#1f4e79" opacity="0.4"/><circle cx="225.79061371841155" cy="119.1624548736462" r="2" fill="#1f4e79" opacity="0.4"/><circle cx="226.3754512635379" cy="209.3285198555957" r="2" fill="#1f4e79" opacity="0.4"/><circle cx="226.96028880866425" cy="213.37184115523465" r="2" fill="#1f4e79" opacity="0.4"/><circle cx="227.5451263537906" cy="166.4693140794224" r="2" fill="#1f4e79" opacity="0.4"/><circle cx="228.12996389891697" cy="204.8808664259928" r="2" fill="#1f4e79" opacity="0.4"/><circle cx="228.71480144404333" cy="163.63898916967509" r="2" fill="#1f4e79" opacity="0.4"/><circle cx="229.29963898916967" cy="250.16606498194946" r="2" fill="#1f4e79" opacity="0.4"/><circle cx="229.88447653429603" cy="108.24548736462094" r="2" fill="#1f4e79" opacity="0.4"/><circle cx="230.4693140794224" cy="125.63176895306862" r="2" fill="#1f4e79" opacity="0.4"/><circle cx="231.05415162454875" cy="100.96750902527077" r="2" fill="#1f4e79" opacity="0.4"/><circle cx="231.63898916967509" cy="161.2129963898917" r="2" fill="#1f4e79" opacity="0.4"/><circle cx="232.22382671480145" cy="181.83393501805054" r="2" fill="#1f4e79" opacity="0.4"/><circle cx="232.8086642599278" cy="136.14440433212997" r="2" fill="#1f4e79" opacity="0.4"/><circle cx="233.39350180505417" cy="188.30324909747293" r="2" fill="#1f4e79" opacity="0.4"/><circle cx="233.97833935018053" cy="107.84115523465704" r="2" fill="#1f4e79" opacity="0.4"/><circle cx="234.56317689530684" cy="190.7292418772563" r="2" fill="#1f4e79" opacity="0.4"/><circle cx="235.1480144404332" cy="159.5956678700361" r="2" fill="#1f4e79" opacity="0.4"/><circle cx="235.73285198555956" cy="101.37184115523468" r="2" fill="#1f4e79" opacity="0.4"/><circle cx="236.31768953068593" cy="176.98194945848377" r="2" fill="#1f4e79" opacity="0.4"/><circle cx="236.90252707581226" cy="119.971119133574" r="2" fill="#1f4e79" opacity="0.4"/><circle cx="237.48736462093862" cy="222.26714801444044" r="2" fill="#1f4e79" opacity="0.4"/><circle cx="238.07220216606498" cy="168.08664259927798" r="2" fill="#1f4e79" opacity="0.4"/><circle cx="238.65703971119135" cy="70.64259927797835" r="2" fill="#1f4e79" opacity="0.4"/><circle cx="239.24187725631768" cy="127.2490974729242" r="2" fill="#1f4e79" opacity="0.4"/><circle cx="239.82671480144404" cy="175.76895306859205" r="2" fill="#1f4e79" opacity="0.4"/><circle cx="240.4115523465704" cy="141.40072202166067" r="2" fill="#1f4e79" opacity="0.4"/><circle cx="240.99638989169677" cy="186.28158844765343" r="2" fill="#1f4e79" opacity="0.4"/><circle cx="241.58122743682313" cy="83.5812274368231" r="2" fill="#1f4e79" opacity="0.4"/><circle cx="242.16606498194946" cy="131.29241877256317" r="2" fill="#1f4e79" opacity="0.4"/><circle cx="242.75090252707582" cy="142.20938628158845" r="2" fill="#1f4e79" opacity="0.4"/><circle cx="243.33574007220219" cy="123.61010830324909" r="2" fill="#1f4e79" opacity="0.4"/><circle cx="243.92057761732855" cy="126.4404332129964" r="2" fill="#1f4e79" opacity="0.4"/><circle cx="244.50541516245485" cy="140.99638989169677" r="2" fill="#1f4e79" opacity="0.4"/><circle cx="245.09025270758121" cy="155.956678700361" r="2" fill="#1f4e79" opacity="0.4"/><circle cx="245.67509025270758" cy="172.12996389891697" r="2" fill="#1f4e79" opacity="0.4"/><circle cx="246.25992779783394" cy="64.98194945848374" r="2" fill="#1f4e79" opacity="0.4"/><circle cx="246.84476534296027" cy="143.01805054151626" r="2" fill="#1f4e79" opacity="0.4"/><circle cx="247.42960288808663" cy="120.37545126353791" r="2" fill="#1f4e79" opacity="0.4"/><circle cx="248.014440433213" cy="176.57761732851986" r="2" fill="#1f4e79" opacity="0.4"/><circle cx="248.59927797833936" cy="148.27436823104694" r="2" fill="#1f4e79" opacity="0.4"/><circle cx="249.18411552346572" cy="160" r="2" fill="#1f4e79" opacity="0.4"/><circle cx="249.76895306859205" cy="145.03971119133575" r="2" fill="#1f4e79" opacity="0.4"/><circle cx="250.35379061371842" cy="151.1046931407942" r="2" fill="#1f4e79" opacity="0.4"/><circle cx="250.93862815884478" cy="114.31046931407943" r="2" fill="#1f4e79" opacity="0.4"/><circle cx="251.52346570397114" cy="144.63537906137185" r="2" fill="#1f4e79" opacity="0.4"/><circle cx="252.10830324909745" cy="134.52707581227438" r="2" fill="#1f4e79" opacity="0.4"/><circle cx="252.6931407942238" cy="175.36462093862815" r="2" fill="#1f4e79" opacity="0.4"/><circle cx="253.27797833935017" cy="117.94945848375451" r="2" fill="#1f4e79" opacity="0.4"/><circle cx="253.86281588447653" cy="161.6173285198556" r="2" fill="#1f4e79" opacity="0.4"/><circle cx="254.44765342960287" cy="206.90252707581226" r="2" fill="#1f4e79" opacity="0.4"/><circle cx="255.03249097472923" cy="217.41516245487364" r="2" fill="#1f4e79" opacity="0.4"/><circle cx="255.6173285198556" cy="153.53068592057764" r="2" fill="#1f4e79" opacity="0.4"/><circle cx="256.20216606498195" cy="174.15162454873646" r="2" fill="#1f4e79" opacity="0.4"/><circle cx="256.7870036101083" cy="240.057761732852" r="2" fill="#1f4e79" opacity="0.4"/><circle cx="257.3718411552346" cy="212.96750902527074" r="2" fill="#1f4e79" opacity="0.4"/><circle cx="257.956678700361" cy="133.31407942238266" r="2" fill="#1f4e79" opacity="0.4"/><circle cx="258.5415162454874" cy="80.7509025270758" r="2" fill="#1f4e79" opacity="0.4"/><circle cx="259.12635379061373" cy="140.18772563176896" r="2" fill="#1f4e79" opacity="0.4"/><circle cx="259.71119133574007" cy="90.45487364620939" r="2" fill="#1f4e79" opacity="0.4"/><circle cx="260.2960288808664" cy="67.40794223826714" r="2" fill="#1f4e79" opacity="0.4"/><circle cx="260.8808664259928" cy="121.18411552346569" r="2" fill="#1f4e79" opacity="0.4"/><circle cx="261.4657039711192" cy="204.07220216606498" r="2" fill="#1f4e79" opacity="0.4"/><circle cx="262.05054151624546" cy="112.69314079422384" r="2" fill="#1f4e79" opacity="0.4"/><circle cx="262.63537906137185" cy="62.151624548736464" r="2" fill="#1f4e79" opacity="0.4"/><circle cx="263.2202166064982" cy="97.32851985559569" r="2" fill="#1f4e79" opacity="0.4"/><circle cx="263.8050541516245" cy="135.74007220216606" r="2" fill="#1f4e79" opacity="0.4"/><circle cx="264.3898916967509" cy="132.10108303249098" r="2" fill="#1f4e79" opacity="0.4"/><circle cx="264.97472924187724" cy="117.54512635379061" r="2" fill="#1f4e79" opacity="0.4"/><circle cx="265.55956678700363" cy="113.90613718411552" r="2" fill="#1f4e79" opacity="0.4"/><circle cx="266.14440433212997" cy="124.4187725631769" r="2" fill="#1f4e79" opacity="0.4"/><circle cx="266.7292418772563" cy="176.17328519855596" r="2" fill="#1f4e79" opacity="0.4"/><circle cx="267.31407942238263" cy="163.23465703971118" r="2" fill="#1f4e79" opacity="0.4"/><circle cx="267.898916967509" cy="118.35379061371842" r="2" fill="#1f4e79" opacity="0.4"/><circle cx="268.4837545126354" cy="78.32490974729242" r="2" fill="#1f4e79" opacity="0.4"/><circle cx="269.06859205776175" cy="146.25270758122744" r="2" fill="#1f4e79" opacity="0.4"/><circle cx="269.6534296028881" cy="115.52346570397111" r="2" fill="#1f4e79" opacity="0.4"/><circle cx="270.2382671480144" cy="147.46570397111913" r="2" fill="#1f4e79" opacity="0.4"/><circle cx="270.8231046931408" cy="113.50180505415165" r="2" fill="#1f4e79" opacity="0.4"/><circle cx="271.4079422382672" cy="91.26353790613717" r="2" fill="#1f4e79" opacity="0.4"/><circle cx="271.99277978339353" cy="134.12274368231047" r="2" fill="#1f4e79" opacity="0.4"/><circle cx="272.57761732851986" cy="119.5667870036101" r="2" fill="#1f4e79" opacity="0.4"/><circle cx="273.1624548736462" cy="130.4837545126354" r="2" fill="#1f4e79" opacity="0.4"/><circle cx="273.74729241877253" cy="138.16606498194943" r="2" fill="#1f4e79" opacity="0.4"/><circle cx="274.3321299638989" cy="95.71119133574007" r="2" fill="#1f4e79" opacity="0.4"/><circle cx="274.91696750902526" cy="115.11913357400724" r="2" fill="#1f4e79" opacity="0.4"/><circle cx="275.50180505415165" cy="107.43682310469313" r="2" fill="#1f4e79" opacity="0.4"/><circle cx="276.086642599278" cy="116.73646209386283" r="2" fill="#1f4e79" opacity="0.4"/><circle cx="276.6714801444043" cy="71.85559566787003" r="2" fill="#1f4e79" opacity="0.4"/><circle cx="277.25631768953065" cy="187.49458483754512" r="2" fill="#1f4e79" opacity="0.4"/><circle cx="277.84115523465704" cy="128.8664259927798" r="2" fill="#1f4e79" opacity="0.4"/><circle cx="278.4259927797834" cy="136.95306859205775" r="2" fill="#1f4e79" opacity="0.4"/><circle cx="279.01083032490976" cy="67.00361010830323" r="2" fill="#1f4e79" opacity="0.4"/><circle cx="279.5956678700361" cy="99.75451263537906" r="2" fill="#1f4e79" opacity="0.4"/><circle cx="280.18050541516243" cy="86.4115523465704" r="2" fill="#1f4e79" opacity="0.4"/><circle cx="280.7653429602888" cy="134.93140794223825" r="2" fill="#1f4e79" opacity="0.4"/><circle cx="281.3501805054152" cy="51.638989169675085" r="2" fill="#1f4e79" opacity="0.4"/><circle cx="281.93501805054154" cy="84.79422382671481" r="2" fill="#1f4e79" opacity="0.4"/><circle cx="282.5198555956679" cy="93.28519855595667" r="2" fill="#1f4e79" opacity="0.4"/><circle cx="283.1046931407942" cy="94.90252707581226" r="2" fill="#1f4e79" opacity="0.4"/><circle cx="283.68953068592054" cy="98.94584837545128" r="2" fill="#1f4e79" opacity="0.4"/><circle cx="284.27436823104694" cy="158.78700361010831" r="2" fill="#1f4e79" opacity="0.4"/><circle cx="284.85920577617327" cy="79.94223826714801" r="2" fill="#1f4e79" opacity="0.4"/><circle cx="285.44404332129966" cy="101.77617328519855" r="2" fill="#1f4e79" opacity="0.4"/><circle cx="286.028880866426" cy="54.873646209386266" r="2" fill="#1f4e79" opacity="0.4"/><circle cx="286.6137184115523" cy="109.86281588447653" r="2" fill="#1f4e79" opacity="0.4"/><circle cx="287.1985559566787" cy="145.44404332129963" r="2" fill="#1f4e79" opacity="0.4"/><circle cx="287.78339350180505" cy="131.69675090252707" r="2" fill="#1f4e79" opacity="0.4"/><circle cx="288.36823104693144" cy="113.09747292418774" r="2" fill="#1f4e79" opacity="0.4"/><circle cx="288.9530685920578" cy="129.67509025270758" r="2" fill="#1f4e79" opacity="0.4"/><circle cx="289.5379061371841" cy="75.09025270758124" r="2" fill="#1f4e79" opacity="0.4"/><circle cx="290.12274368231044" cy="137.76173285198556" r="2" fill="#1f4e79" opacity="0.4"/><circle cx="290.70758122743683" cy="103.79783393501805" r="2" fill="#1f4e79" opacity="0.4"/><circle cx="291.29241877256317" cy="118.75812274368232" r="2" fill="#1f4e79" opacity="0.4"/><circle cx="291.87725631768956" cy="64.57761732851986" r="2" fill="#1f4e79" opacity="0.4"/><circle cx="292.4620938628159" cy="147.06137184115522" r="2" fill="#1f4e79" opacity="0.4"/><circle cx="293.0469314079422" cy="127.65342960288808" r="2" fill="#1f4e79" opacity="0.4"/><circle cx="293.63176895306856" cy="122.80144404332128" r="2" fill="#1f4e79" opacity="0.4"/><circle cx="294.21660649819495" cy="87.62454873646209" r="2" fill="#1f4e79" opacity="0.4"/><circle cx="294.8014440433213" cy="98.13718411552347" r="2" fill="#1f4e79" opacity="0.4"/><circle cx="295.3862815884477" cy="75.89891696750902" r="2" fill="#1f4e79" opacity="0.4"/><circle cx="295.971119133574" cy="97.73285198555959" r="2" fill="#1f4e79" opacity="0.4"/><circle cx="296.55595667870034" cy="132.90974729241876" r="2" fill="#1f4e79" opacity="0.4"/><circle cx="297.14079422382673" cy="124.014440433213" r="2" fill="#1f4e79" opacity="0.4"/><circle cx="297.72563176895306" cy="142.61371841155236" r="2" fill="#1f4e79" opacity="0.4"/><circle cx="298.31046931407946" cy="96.11552346570397" r="2" fill="#1f4e79" opacity="0.4"/><circle cx="298.8953068592058" cy="109.45848375451263" r="2" fill="#1f4e79" opacity="0.4"/><circle cx="299.4801444043321" cy="90.05054151624549" r="2" fill="#1f4e79" opacity="0.4"/><circle cx="300.06498194945846" cy="58.916967509025284" r="2" fill="#1f4e79" opacity="0.4"/><circle cx="300.6498194945848" cy="194.7725631768953" r="2" fill="#1f4e79" opacity="0.4"/><circle cx="301.2346570397112" cy="83.1768953068592" r="2" fill="#1f4e79" opacity="0.4"/><circle cx="301.81949458483757" cy="100.15884476534296" r="2" fill="#1f4e79" opacity="0.4"/><circle cx="302.4043321299639" cy="125.22743682310471" r="2" fill="#1f4e79" opacity="0.4"/><circle cx="302.98916967509024" cy="94.49819494584835" r="2" fill="#1f4e79" opacity="0.4"/><circle cx="303.5740072202166" cy="104.60649819494586" r="2" fill="#1f4e79" opacity="0.4"/><circle cx="304.15884476534296" cy="126.03610108303249" r="2" fill="#1f4e79" opacity="0.4"/><circle cx="304.74368231046935" cy="71.45126353790616" r="2" fill="#1f4e79" opacity="0.4"/><circle cx="305.32851985559563" cy="116.33212996389892" r="2" fill="#1f4e79" opacity="0.4"/><circle cx="305.913357400722" cy="149.89169675090253" r="2" fill="#1f4e79" opacity="0.4"/><circle cx="306.49819494584835" cy="68.21660649819495" r="2" fill="#1f4e79" opacity="0.4"/><circle cx="307.08303249097474" cy="77.51624548736461" r="2" fill="#1f4e79" opacity="0.4"/><circle cx="307.6678700361011" cy="96.51985559566788" r="2" fill="#1f4e79" opacity="0.4"/><circle cx="308.2527075812274" cy="102.58483754512636" r="2" fill="#1f4e79" opacity="0.4"/><circle cx="308.8375451263538" cy="111.48014440433212" r="2" fill="#1f4e79" opacity="0.4"/><circle cx="309.42238267148014" cy="121.9927797833935" r="2" fill="#1f4e79" opacity="0.4"/><circle cx="310.00722021660647" cy="88.8375451263538" r="2" fill="#1f4e79" opacity="0.4"/><circle cx="310.59205776173286" cy="54.064981949458485" r="2" fill="#1f4e79" opacity="0.4"/><circle cx="311.1768953068592" cy="92.88086642599276" r="2" fill="#1f4e79" opacity="0.4"/><circle cx="311.7617328519856" cy="94.09386281588448" r="2" fill="#1f4e79" opacity="0.4"/><circle cx="312.3465703971119" cy="53.66064981949458" r="2" fill="#1f4e79" opacity="0.4"/><circle cx="312.93140794223825" cy="86.81588447653431" r="2" fill="#1f4e79" opacity="0.4"/><circle cx="313.51624548736464" cy="137.35740072202165" r="2" fill="#1f4e79" opacity="0.4"/><circle cx="314.101083032491" cy="129.2707581227437" r="2" fill="#1f4e79" opacity="0.4"/><circle cx="314.68592057761737" cy="167.27797833935017" r="2" fill="#1f4e79" opacity="0.4"/><circle cx="315.27075812274364" cy="187.09025270758121" r="2" fill="#1f4e79" opacity="0.4"/><circle cx="315.85559566787003" cy="259.4657039711191" r="2" fill="#1f4e79" opacity="0.4"/><circle cx="316.44043321299637" cy="111.07581227436822" r="2" fill="#1f4e79" opacity="0.4"/><circle cx="317.02527075812276" cy="79.1335740072202" r="2" fill="#1f4e79" opacity="0.4"/><circle cx="317.6101083032491" cy="85.19855595667872" r="2" fill="#1f4e79" opacity="0.4"/><circle cx="318.1949458483754" cy="71.04693140794225" r="2" fill="#1f4e79" opacity="0.4"/><circle cx="318.7797833935018" cy="92.47653429602889" r="2" fill="#1f4e79" opacity="0.4"/><circle cx="319.36462093862815" cy="51.23465703971118" r="2" fill="#1f4e79" opacity="0.4"/><circle cx="319.94945848375454" cy="82.36823104693138" r="2" fill="#1f4e79" opacity="0.4"/><circle cx="320.5342960288809" cy="93.68953068592057" r="2" fill="#1f4e79" opacity="0.4"/><circle cx="321.1191335740072" cy="81.1552346570397" r="2" fill="#1f4e79" opacity="0.4"/><circle cx="321.7039711191336" cy="110.67148014440431" r="2" fill="#1f4e79" opacity="0.4"/><circle cx="322.28880866425993" cy="106.62815884476532" r="2" fill="#1f4e79" opacity="0.4"/><circle cx="322.87364620938627" cy="148.6787003610108" r="2" fill="#1f4e79" opacity="0.4"/><circle cx="323.45848375451266" cy="104.20216606498195" r="2" fill="#1f4e79" opacity="0.4"/><circle cx="324.043321299639" cy="69.83393501805057" r="2" fill="#1f4e79" opacity="0.4"/><circle cx="324.6281588447654" cy="95.30685920577616" r="2" fill="#1f4e79" opacity="0.4"/><circle cx="325.21299638989166" cy="108.64981949458482" r="2" fill="#1f4e79" opacity="0.4"/><circle cx="325.79783393501805" cy="66.59927797833933" r="2" fill="#1f4e79" opacity="0.4"/><circle cx="326.3826714801444" cy="65.79061371841155" r="2" fill="#1f4e79" opacity="0.4"/><circle cx="326.9675090252708" cy="185.06859205776175" r="2" fill="#1f4e79" opacity="0.4"/><circle cx="327.5523465703971" cy="91.66787003610108" r="2" fill="#1f4e79" opacity="0.4"/><circle cx="328.13718411552344" cy="120.77978339350179" r="2" fill="#1f4e79" opacity="0.4"/><circle cx="328.72202166064983" cy="89.24187725631768" r="2" fill="#1f4e79" opacity="0.4"/><circle cx="329.30685920577616" cy="80.34657039711192" r="2" fill="#1f4e79" opacity="0.4"/><circle cx="329.89169675090255" cy="74.68592057761734" r="2" fill="#1f4e79" opacity="0.4"/><circle cx="330.4765342960289" cy="152.31768953068593" r="2" fill="#1f4e79" opacity="0.4"/><circle cx="331.0613718411552" cy="98.54151624548737" r="2" fill="#1f4e79" opacity="0.4"/><circle cx="331.6462093862816" cy="124.8231046931408" r="2" fill="#1f4e79" opacity="0.4"/><circle cx="332.23104693140795" cy="73.47292418772562" r="2" fill="#1f4e79" opacity="0.4"/><circle cx="332.8158844765343" cy="81.5595667870036" r="2" fill="#1f4e79" opacity="0.4"/><circle cx="333.4007220216606" cy="60.93862815884478" r="2" fill="#1f4e79" opacity="0.4"/><circle cx="333.985559566787" cy="72.25992779783394" r="2" fill="#1f4e79" opacity="0.4"/><circle cx="334.57039711191334" cy="88.4332129963899" r="2" fill="#1f4e79" opacity="0.4"/><circle cx="335.1552346570397" cy="170.51263537906138" r="2" fill="#1f4e79" opacity="0.4"/><circle cx="335.74007220216606" cy="92.07220216606498" r="2" fill="#1f4e79" opacity="0.4"/><circle cx="336.3249097472924" cy="57.299638989169694" r="2" fill="#1f4e79" opacity="0.4"/><circle cx="336.9097472924188" cy="164.4476534296029" r="2" fill="#1f4e79" opacity="0.4"/><circle cx="337.4945848375451" cy="70.23826714801444" r="2" fill="#1f4e79" opacity="0.4"/><circle cx="338.07942238267145" cy="106.22382671480145" r="2" fill="#1f4e79" opacity="0.4"/><circle cx="338.66425992779784" cy="105.01083032490973" r="2" fill="#1f4e79" opacity="0.4"/><circle cx="339.2490974729242" cy="83.985559566787" r="2" fill="#1f4e79" opacity="0.4"/><circle cx="339.83393501805057" cy="52.04332129963899" r="2" fill="#1f4e79" opacity="0.4"/><circle cx="340.4187725631769" cy="68.62093862815885" r="2" fill="#1f4e79" opacity="0.4"/><circle cx="341.00361010830323" cy="166.06498194945848" r="2" fill="#1f4e79" opacity="0.4"/><circle cx="341.5884476534296" cy="102.18050541516246" r="2" fill="#1f4e79" opacity="0.4"/><circle cx="342.17328519855596" cy="56.89530685920579" r="2" fill="#1f4e79" opacity="0.4"/><circle cx="342.75812274368235" cy="73.06859205776175" r="2" fill="#1f4e79" opacity="0.4"/><circle cx="343.3429602888086" cy="77.92057761732852" r="2" fill="#1f4e79" opacity="0.4"/><circle cx="343.927797833935" cy="99.35018050541518" r="2" fill="#1f4e79" opacity="0.4"/><circle cx="344.51263537906135" cy="52.447653429602866" r="2" fill="#1f4e79" opacity="0.4"/><circle cx="345.09747292418774" cy="54.46931407942236" r="2" fill="#1f4e79" opacity="0.4"/><circle cx="345.6823104693141" cy="78.7292418772563" r="2" fill="#1f4e79" opacity="0.4"/><circle cx="346.2671480144404" cy="48.80866425992781" r="2" fill="#1f4e79" opacity="0.4"/><circle cx="346.8519855595668" cy="60.534296028880874" r="2" fill="#1f4e79" opacity="0.4"/><circle cx="347.43682310469313" cy="73.87725631768953" r="2" fill="#1f4e79" opacity="0.4"/><circle cx="348.02166064981947" cy="88.028880866426" r="2" fill="#1f4e79" opacity="0.4"/><circle cx="348.60649819494586" cy="149.08303249097472" r="2" fill="#1f4e79" opacity="0.4"/><circle cx="349.1913357400722" cy="59.725631768953065" r="2" fill="#1f4e79" opacity="0.4"/><circle cx="349.7761732851986" cy="62.960288808664245" r="2" fill="#1f4e79" opacity="0.4"/><circle cx="350.3610108303249" cy="74.28158844765343" r="2" fill="#1f4e79" opacity="0.4"/><circle cx="350.94584837545125" cy="103.39350180505414" r="2" fill="#1f4e79" opacity="0.4"/><circle cx="351.53068592057764" cy="130.07942238267148" r="2" fill="#1f4e79" opacity="0.4"/><circle cx="352.115523465704" cy="82.77256317689529" r="2" fill="#1f4e79" opacity="0.4"/><circle cx="352.70036101083036" cy="56.490974729241884" r="2" fill="#1f4e79" opacity="0.4"/><circle cx="353.28519855595664" cy="63.768953068592054" r="2" fill="#1f4e79" opacity="0.4"/><circle cx="353.87003610108303" cy="86.0072202166065" r="2" fill="#1f4e79" opacity="0.4"/><circle cx="354.45487364620936" cy="49.61732851985559" r="2" fill="#1f4e79" opacity="0.4"/><circle cx="355.03971119133575" cy="192.34657039711192" r="2" fill="#1f4e79" opacity="0.4"/><circle cx="355.6245487364621" cy="62.55595667870037" r="2" fill="#1f4e79" opacity="0.4"/><circle cx="356.2093862815884" cy="79.53790613718411" r="2" fill="#1f4e79" opacity="0.4"/><circle cx="356.7942238267148" cy="84.38989169675091" r="2" fill="#1f4e79" opacity="0.4"/><circle cx="357.37906137184115" cy="72.66425992779784" r="2" fill="#1f4e79" opacity="0.4"/><circle cx="357.96389891696754" cy="60.12996389891697" r="2" fill="#1f4e79" opacity="0.4"/><circle cx="358.54873646209387" cy="55.682310469314075" r="2" fill="#1f4e79" opacity="0.4"/><circle cx="359.1335740072202" cy="65.38628158844764" r="2" fill="#1f4e79" opacity="0.4"/><circle cx="359.7184115523466" cy="81.96389891696751" r="2" fill="#1f4e79" opacity="0.4"/><circle cx="360.30324909747293" cy="57.70397111913357" r="2" fill="#1f4e79" opacity="0.4"/><circle cx="360.88808664259926" cy="49.212996389891686" r="2" fill="#1f4e79" opacity="0.4"/><circle cx="361.47292418772565" cy="77.11191335740071" r="2" fill="#1f4e79" opacity="0.4"/><circle cx="362.057761732852" cy="64.17328519855596" r="2" fill="#1f4e79" opacity="0.4"/><circle cx="362.6425992779784" cy="59.32129963898919" r="2" fill="#1f4e79" opacity="0.4"/><circle cx="363.22743682310465" cy="55.27797833935017" r="2" fill="#1f4e79" opacity="0.4"/><circle cx="363.81227436823104" cy="52.85198555956677" r="2" fill="#1f4e79" opacity="0.4"/><circle cx="364.3971119133574" cy="75.49458483754512" r="2" fill="#1f4e79" opacity="0.4"/><circle cx="364.98194945848377" cy="58.108303249097474" r="2" fill="#1f4e79" opacity="0.4"/><circle cx="365.5667870036101" cy="56.08664259927798" r="2" fill="#1f4e79" opacity="0.4"/><circle cx="366.15162454873644" cy="76.70758122743683" r="2" fill="#1f4e79" opacity="0.4"/><circle cx="366.7364620938628" cy="63.36462093862815" r="2" fill="#1f4e79" opacity="0.4"/><circle cx="367.32129963898916" cy="48.404332129963905" r="2" fill="#1f4e79" opacity="0.4"/><circle cx="367.90613718411555" cy="50.830324909747276" r="2" fill="#1f4e79" opacity="0.4"/><circle cx="368.4909747292419" cy="61.342960288808655" r="2" fill="#1f4e79" opacity="0.4"/><circle cx="369.0758122743682" cy="58.51263537906138" r="2" fill="#1f4e79" opacity="0.4"/><circle cx="369.6606498194946" cy="53.256317689530675" r="2" fill="#1f4e79" opacity="0.4"/><circle cx="370.24548736462094" cy="50.4259927797834" r="2" fill="#1f4e79" opacity="0.4"/><circle cx="370.8303249097473" cy="61.74729241877256" r="2" fill="#1f4e79" opacity="0.4"/><circle cx="371.41516245487367" cy="66.19494584837545" r="2" fill="#1f4e79" opacity="0.4"/><circle cx="372" cy="48" r="2" fill="#1f4e79" opacity="0.4"/></svg>