<?xml version="1.0"?><svg xmlns="http://www.w3.org/2000/svg" width="480" height="360">
  <rect width="100%" height="100%" fill="#fff"/>
  <text x="40" y="24" font-size="14" font-family="sans-serif">M16C_P residual vs prediction</text>
  <line x1="40" y1="320" x2="440" y2="320" stroke="#333"/>
  <line x1="40" y1="40" x2="40" y2="320" stroke="#333"/>
  <circle cx="440.0" cy="186.2" r="2" fill="#2563eb" opacity="0.55"/>
<circle cx="376.8" cy="199.4" r="2" fill="#2563eb" opacity="0.55"/>
<circle cx="355.2" cy="224.0" r="2" fill="#2563eb" opacity="0.55"/>
<circle cx="342.6" cy="226.3" r="2" fill="#2563eb" opacity="0.55"/>
<circle cx="385.3" cy="213.6" r="2" fill="#2563eb" opacity="0.55"/>
<circle cx="348.0" cy="182.0" r="2" fill="#2563eb" opacity="0.55"/>
<circle cx="333.5" cy="220.5" r="2" fill="#2563eb" opacity="0.55"/>
<circle cx="369.0" cy="200.6" r="2" fill="#2563eb" opacity="0.55"/>
<circle cx="357.6" cy="180.4" r="2" fill="#2563eb" opacity="0.55"/>
<circle cx="346.8" cy="222.5" r="2" fill="#2563eb" opacity="0.55"/>
<circle cx="338.3" cy="207.2" r="2" fill="#2563eb" opacity="0.55"/>
<circle cx="346.2" cy="216.8" r="2" fill="#2563eb" opacity="0.55"/>
<circle cx="326.3" cy="221.0" r="2" fill="#2563eb" opacity="0.55"/>
<circle cx="351.6" cy="219.9" r="2" fill="#2563eb" opacity="0.55"/>
<circle cx="344.4" cy="216.6" r="2" fill="#2563eb" opacity="0.55"/>
<circle cx="315.5" cy="223.1" r="2" fill="#2563eb" opacity="0.55"/>
<circle cx="399.7" cy="223.9" r="2" fill="#2563eb" opacity="0.55"/>
<circle cx="311.9" cy="188.6" r="2" fill="#2563eb" opacity="0.55"/>
<circle cx="385.9" cy="210.2" r="2" fill="#2563eb" opacity="0.55"/>
<circle cx="318.5" cy="184.2" r="2" fill="#2563eb" opacity="0.55"/>
<circle cx="327.5" cy="192.4" r="2" fill="#2563eb" opacity="0.55"/>
<circle cx="319.7" cy="208.0" r="2" fill="#2563eb" opacity="0.55"/>
<circle cx="334.7" cy="213.8" r="2" fill="#2563eb" opacity="0.55"/>
<circle cx="440.0" cy="226.2" r="2" fill="#2563eb" opacity="0.55"/>
<circle cx="309.5" cy="166.5" r="2" fill="#2563eb" opacity="0.55"/>
<circle cx="320.9" cy="195.5" r="2" fill="#2563eb" opacity="0.55"/>
<circle cx="304.1" cy="215.5" r="2" fill="#2563eb" opacity="0.55"/>
<circle cx="361.2" cy="177.9" r="2" fill="#2563eb" opacity="0.55"/>
<circle cx="334.1" cy="216.6" r="2" fill="#2563eb" opacity="0.55"/>
<circle cx="298.0" cy="203.9" r="2" fill="#2563eb" opacity="0.55"/>
<circle cx="308.9" cy="208.0" r="2" fill="#2563eb" opacity="0.55"/>
<circle cx="338.9" cy="179.9" r="2" fill="#2563eb" opacity="0.55"/>
<circle cx="311.9" cy="183.6" r="2" fill="#2563eb" opacity="0.55"/>
<circle cx="317.3" cy="231.7" r="2" fill="#2563eb" opacity="0.55"/>
<circle cx="316.7" cy="193.5" r="2" fill="#2563eb" opacity="0.55"/>
<circle cx="329.3" cy="212.1" r="2" fill="#2563eb" opacity="0.55"/>
<circle cx="288.4" cy="202.6" r="2" fill="#2563eb" opacity="0.55"/>
<circle cx="329.9" cy="209.0" r="2" fill="#2563eb" opacity="0.55"/>
<circle cx="345.0" cy="220.7" r="2" fill="#2563eb" opacity="0.55"/>
<circle cx="297.4" cy="177.2" r="2" fill="#2563eb" opacity="0.55"/>
<circle cx="340.8" cy="215.9" r="2" fill="#2563eb" opacity="0.55"/>
<circle cx="291.4" cy="183.9" r="2" fill="#2563eb" opacity="0.55"/>
<circle cx="287.8" cy="177.9" r="2" fill="#2563eb" opacity="0.55"/>
<circle cx="333.5" cy="225.9" r="2" fill="#2563eb" opacity="0.55"/>
<circle cx="325.1" cy="216.3" r="2" fill="#2563eb" opacity="0.55"/>
<circle cx="283.0" cy="225.8" r="2" fill="#2563eb" opacity="0.55"/>
<circle cx="317.9" cy="187.3" r="2" fill="#2563eb" opacity="0.55"/>
<circle cx="305.9" cy="196.9" r="2" fill="#2563eb" opacity="0.55"/>
<circle cx="286.0" cy="204.7" r="2" fill="#2563eb" opacity="0.55"/>
<circle cx="298.6" cy="215.5" r="2" fill="#2563eb" opacity="0.55"/>
<circle cx="283.6" cy="197.4" r="2" fill="#2563eb" opacity="0.55"/>
<circle cx="385.9" cy="237.4" r="2" fill="#2563eb" opacity="0.55"/>
<circle cx="310.1" cy="177.4" r="2" fill="#2563eb" opacity="0.55"/>
<circle cx="314.3" cy="204.8" r="2" fill="#2563eb" opacity="0.55"/>
<circle cx="317.3" cy="203.8" r="2" fill="#2563eb" opacity="0.55"/>
<circle cx="377.4" cy="208.9" r="2" fill="#2563eb" opacity="0.55"/>
<circle cx="290.2" cy="177.2" r="2" fill="#2563eb" opacity="0.55"/>
<circle cx="296.2" cy="207.4" r="2" fill="#2563eb" opacity="0.55"/>
<circle cx="293.8" cy="224.6" r="2" fill="#2563eb" opacity="0.55"/>
<circle cx="345.6" cy="189.0" r="2" fill="#2563eb" opacity="0.55"/>
<circle cx="297.4" cy="203.9" r="2" fill="#2563eb" opacity="0.55"/>
<circle cx="279.4" cy="230.4" r="2" fill="#2563eb" opacity="0.55"/>
<circle cx="275.2" cy="194.8" r="2" fill="#2563eb" opacity="0.55"/>
<circle cx="281.8" cy="209.1" r="2" fill="#2563eb" opacity="0.55"/>
<circle cx="395.5" cy="199.6" r="2" fill="#2563eb" opacity="0.55"/>
<circle cx="274.0" cy="197.6" r="2" fill="#2563eb" opacity="0.55"/>
<circle cx="331.1" cy="184.4" r="2" fill="#2563eb" opacity="0.55"/>
<circle cx="286.0" cy="172.4" r="2" fill="#2563eb" opacity="0.55"/>
<circle cx="301.1" cy="206.1" r="2" fill="#2563eb" opacity="0.55"/>
<circle cx="290.2" cy="208.1" r="2" fill="#2563eb" opacity="0.55"/>
<circle cx="303.5" cy="202.7" r="2" fill="#2563eb" opacity="0.55"/>
<circle cx="393.1" cy="249.1" r="2" fill="#2563eb" opacity="0.55"/>
<circle cx="277.0" cy="202.0" r="2" fill="#2563eb" opacity="0.55"/>
<circle cx="270.4" cy="208.7" r="2" fill="#2563eb" opacity="0.55"/>
<circle cx="304.7" cy="203.3" r="2" fill="#2563eb" opacity="0.55"/>
<circle cx="304.1" cy="181.0" r="2" fill="#2563eb" opacity="0.55"/>
<circle cx="306.5" cy="194.6" r="2" fill="#2563eb" opacity="0.55"/>
<circle cx="360.6" cy="207.7" r="2" fill="#2563eb" opacity="0.55"/>
<circle cx="311.9" cy="185.3" r="2" fill="#2563eb" opacity="0.55"/>
<circle cx="283.0" cy="207.0" r="2" fill="#2563eb" opacity="0.55"/>
<circle cx="435.2" cy="219.8" r="2" fill="#2563eb" opacity="0.55"/>
<circle cx="269.8" cy="203.3" r="2" fill="#2563eb" opacity="0.55"/>
<circle cx="261.4" cy="214.9" r="2" fill="#2563eb" opacity="0.55"/>
<circle cx="309.5" cy="232.1" r="2" fill="#2563eb" opacity="0.55"/>
<circle cx="271.6" cy="183.4" r="2" fill="#2563eb" opacity="0.55"/>
<circle cx="292.0" cy="190.1" r="2" fill="#2563eb" opacity="0.55"/>
<circle cx="257.1" cy="184.5" r="2" fill="#2563eb" opacity="0.55"/>
<circle cx="268.6" cy="199.1" r="2" fill="#2563eb" opacity="0.55"/>
<circle cx="283.6" cy="219.3" r="2" fill="#2563eb" opacity="0.55"/>
<circle cx="255.3" cy="208.5" r="2" fill="#2563eb" opacity="0.55"/>
<circle cx="267.4" cy="201.8" r="2" fill="#2563eb" opacity="0.55"/>
<circle cx="358.2" cy="178.2" r="2" fill="#2563eb" opacity="0.55"/>
<circle cx="262.0" cy="203.0" r="2" fill="#2563eb" opacity="0.55"/>
<circle cx="262.6" cy="210.6" r="2" fill="#2563eb" opacity="0.55"/>
<circle cx="265.6" cy="179.6" r="2" fill="#2563eb" opacity="0.55"/>
<circle cx="261.4" cy="232.1" r="2" fill="#2563eb" opacity="0.55"/>
<circle cx="359.4" cy="214.6" r="2" fill="#2563eb" opacity="0.55"/>
<circle cx="330.5" cy="217.7" r="2" fill="#2563eb" opacity="0.55"/>
<circle cx="268.0" cy="203.8" r="2" fill="#2563eb" opacity="0.55"/>
<circle cx="275.2" cy="203.7" r="2" fill="#2563eb" opacity="0.55"/>
<circle cx="269.2" cy="224.0" r="2" fill="#2563eb" opacity="0.55"/>
<circle cx="274.6" cy="181.0" r="2" fill="#2563eb" opacity="0.55"/>
<circle cx="265.6" cy="210.5" r="2" fill="#2563eb" opacity="0.55"/>
<circle cx="272.2" cy="209.7" r="2" fill="#2563eb" opacity="0.55"/>
<circle cx="277.6" cy="220.2" r="2" fill="#2563eb" opacity="0.55"/>
<circle cx="249.3" cy="217.7" r="2" fill="#2563eb" opacity="0.55"/>
<circle cx="258.9" cy="181.5" r="2" fill="#2563eb" opacity="0.55"/>
<circle cx="268.6" cy="234.0" r="2" fill="#2563eb" opacity="0.55"/>
<circle cx="266.8" cy="226.8" r="2" fill="#2563eb" opacity="0.55"/>
<circle cx="273.4" cy="178.3" r="2" fill="#2563eb" opacity="0.55"/>
<circle cx="274.0" cy="187.7" r="2" fill="#2563eb" opacity="0.55"/>
<circle cx="251.1" cy="179.6" r="2" fill="#2563eb" opacity="0.55"/>
<circle cx="256.5" cy="216.1" r="2" fill="#2563eb" opacity="0.55"/>
<circle cx="278.8" cy="179.0" r="2" fill="#2563eb" opacity="0.55"/>
<circle cx="306.5" cy="212.7" r="2" fill="#2563eb" opacity="0.55"/>
<circle cx="278.2" cy="221.4" r="2" fill="#2563eb" opacity="0.55"/>
<circle cx="395.5" cy="215.9" r="2" fill="#2563eb" opacity="0.55"/>
<circle cx="244.5" cy="191.2" r="2" fill="#2563eb" opacity="0.55"/>
<circle cx="251.7" cy="193.3" r="2" fill="#2563eb" opacity="0.55"/>
<circle cx="245.1" cy="185.8" r="2" fill="#2563eb" opacity="0.55"/>
<circle cx="249.3" cy="244.2" r="2" fill="#2563eb" opacity="0.55"/>
<circle cx="246.9" cy="173.1" r="2" fill="#2563eb" opacity="0.55"/>
<circle cx="290.8" cy="166.3" r="2" fill="#2563eb" opacity="0.55"/>
<circle cx="251.1" cy="195.8" r="2" fill="#2563eb" opacity="0.55"/>
<circle cx="249.3" cy="202.2" r="2" fill="#2563eb" opacity="0.55"/>
<circle cx="243.3" cy="235.6" r="2" fill="#2563eb" opacity="0.55"/>
<circle cx="246.3" cy="193.1" r="2" fill="#2563eb" opacity="0.55"/>
<circle cx="249.3" cy="176.5" r="2" fill="#2563eb" opacity="0.55"/>
<circle cx="288.4" cy="230.0" r="2" fill="#2563eb" opacity="0.55"/>
<circle cx="252.3" cy="214.7" r="2" fill="#2563eb" opacity="0.55"/>
<circle cx="252.3" cy="177.7" r="2" fill="#2563eb" opacity="0.55"/>
<circle cx="252.9" cy="198.2" r="2" fill="#2563eb" opacity="0.55"/>
<circle cx="278.8" cy="219.4" r="2" fill="#2563eb" opacity="0.55"/>
<circle cx="240.3" cy="212.0" r="2" fill="#2563eb" opacity="0.55"/>
<circle cx="258.9" cy="175.2" r="2" fill="#2563eb" opacity="0.55"/>
<circle cx="252.9" cy="209.7" r="2" fill="#2563eb" opacity="0.55"/>
<circle cx="275.2" cy="243.4" r="2" fill="#2563eb" opacity="0.55"/>
<circle cx="246.9" cy="271.6" r="2" fill="#2563eb" opacity="0.55"/>
<circle cx="243.9" cy="185.1" r="2" fill="#2563eb" opacity="0.55"/>
<circle cx="299.8" cy="170.9" r="2" fill="#2563eb" opacity="0.55"/>
<circle cx="242.1" cy="194.9" r="2" fill="#2563eb" opacity="0.55"/>
<circle cx="262.6" cy="211.9" r="2" fill="#2563eb" opacity="0.55"/>
<circle cx="238.5" cy="163.5" r="2" fill="#2563eb" opacity="0.55"/>
<circle cx="254.7" cy="192.9" r="2" fill="#2563eb" opacity="0.55"/>
<circle cx="240.9" cy="201.1" r="2" fill="#2563eb" opacity="0.55"/>
<circle cx="254.1" cy="219.8" r="2" fill="#2563eb" opacity="0.55"/>
<circle cx="263.8" cy="207.1" r="2" fill="#2563eb" opacity="0.55"/>
<circle cx="237.9" cy="209.0" r="2" fill="#2563eb" opacity="0.55"/>
<circle cx="239.7" cy="200.3" r="2" fill="#2563eb" opacity="0.55"/>
<circle cx="237.9" cy="212.1" r="2" fill="#2563eb" opacity="0.55"/>
<circle cx="258.9" cy="203.4" r="2" fill="#2563eb" opacity="0.55"/>
<circle cx="240.9" cy="230.4" r="2" fill="#2563eb" opacity="0.55"/>
<circle cx="243.9" cy="199.4" r="2" fill="#2563eb" opacity="0.55"/>
<circle cx="279.4" cy="257.6" r="2" fill="#2563eb" opacity="0.55"/>
<circle cx="244.5" cy="162.6" r="2" fill="#2563eb" opacity="0.55"/>
<circle cx="244.5" cy="201.9" r="2" fill="#2563eb" opacity="0.55"/>
<circle cx="296.8" cy="208.8" r="2" fill="#2563eb" opacity="0.55"/>
<circle cx="251.7" cy="191.9" r="2" fill="#2563eb" opacity="0.55"/>
<circle cx="241.5" cy="226.5" r="2" fill="#2563eb" opacity="0.55"/>
<circle cx="247.5" cy="203.8" r="2" fill="#2563eb" opacity="0.55"/>
<circle cx="246.3" cy="190.9" r="2" fill="#2563eb" opacity="0.55"/>
<circle cx="249.3" cy="203.0" r="2" fill="#2563eb" opacity="0.55"/>
<circle cx="261.4" cy="210.2" r="2" fill="#2563eb" opacity="0.55"/>
<circle cx="294.4" cy="254.6" r="2" fill="#2563eb" opacity="0.55"/>
<circle cx="237.3" cy="194.2" r="2" fill="#2563eb" opacity="0.55"/>
<circle cx="289.6" cy="192.7" r="2" fill="#2563eb" opacity="0.55"/>
<circle cx="236.1" cy="182.7" r="2" fill="#2563eb" opacity="0.55"/>
<circle cx="288.4" cy="186.7" r="2" fill="#2563eb" opacity="0.55"/>
<circle cx="273.4" cy="201.3" r="2" fill="#2563eb" opacity="0.55"/>
<circle cx="236.7" cy="195.5" r="2" fill="#2563eb" opacity="0.55"/>
<circle cx="281.8" cy="177.4" r="2" fill="#2563eb" opacity="0.55"/>
<circle cx="280.6" cy="223.1" r="2" fill="#2563eb" opacity="0.55"/>
<circle cx="268.6" cy="154.7" r="2" fill="#2563eb" opacity="0.55"/>
<circle cx="277.6" cy="186.7" r="2" fill="#2563eb" opacity="0.55"/>
<circle cx="289.6" cy="263.1" r="2" fill="#2563eb" opacity="0.55"/>
<circle cx="285.4" cy="211.7" r="2" fill="#2563eb" opacity="0.55"/>
<circle cx="292.6" cy="254.9" r="2" fill="#2563eb" opacity="0.55"/>
<circle cx="236.1" cy="178.6" r="2" fill="#2563eb" opacity="0.55"/>
<circle cx="264.4" cy="234.1" r="2" fill="#2563eb" opacity="0.55"/>
<circle cx="234.3" cy="201.0" r="2" fill="#2563eb" opacity="0.55"/>
<circle cx="252.9" cy="197.7" r="2" fill="#2563eb" opacity="0.55"/>
<circle cx="266.2" cy="232.3" r="2" fill="#2563eb" opacity="0.55"/>
<circle cx="242.1" cy="208.9" r="2" fill="#2563eb" opacity="0.55"/>
<circle cx="243.9" cy="144.6" r="2" fill="#2563eb" opacity="0.55"/>
<circle cx="233.7" cy="222.1" r="2" fill="#2563eb" opacity="0.55"/>
<circle cx="250.5" cy="254.9" r="2" fill="#2563eb" opacity="0.55"/>
<circle cx="239.1" cy="223.7" r="2" fill="#2563eb" opacity="0.55"/>
<circle cx="235.5" cy="223.6" r="2" fill="#2563eb" opacity="0.55"/>
<circle cx="234.3" cy="199.8" r="2" fill="#2563eb" opacity="0.55"/>
<circle cx="233.7" cy="234.5" r="2" fill="#2563eb" opacity="0.55"/>
<circle cx="243.3" cy="249.7" r="2" fill="#2563eb" opacity="0.55"/>
<circle cx="237.9" cy="206.4" r="2" fill="#2563eb" opacity="0.55"/>
<circle cx="243.9" cy="182.8" r="2" fill="#2563eb" opacity="0.55"/>
<circle cx="231.9" cy="236.7" r="2" fill="#2563eb" opacity="0.55"/>
<circle cx="252.9" cy="216.8" r="2" fill="#2563eb" opacity="0.55"/>
<circle cx="247.5" cy="229.5" r="2" fill="#2563eb" opacity="0.55"/>
<circle cx="231.9" cy="179.9" r="2" fill="#2563eb" opacity="0.55"/>
<circle cx="245.1" cy="136.1" r="2" fill="#2563eb" opacity="0.55"/>
<circle cx="230.7" cy="247.0" r="2" fill="#2563eb" opacity="0.55"/>
<circle cx="231.3" cy="210.6" r="2" fill="#2563eb" opacity="0.55"/>
<circle cx="242.1" cy="256.7" r="2" fill="#2563eb" opacity="0.55"/>
<circle cx="229.5" cy="216.6" r="2" fill="#2563eb" opacity="0.55"/>
<circle cx="228.9" cy="180.2" r="2" fill="#2563eb" opacity="0.55"/>
<circle cx="230.7" cy="215.1" r="2" fill="#2563eb" opacity="0.55"/>
<circle cx="230.1" cy="212.1" r="2" fill="#2563eb" opacity="0.55"/>
<circle cx="230.1" cy="187.5" r="2" fill="#2563eb" opacity="0.55"/>
<circle cx="233.7" cy="188.2" r="2" fill="#2563eb" opacity="0.55"/>
<circle cx="228.3" cy="213.0" r="2" fill="#2563eb" opacity="0.55"/>
<circle cx="228.9" cy="195.1" r="2" fill="#2563eb" opacity="0.55"/>
<circle cx="228.3" cy="225.7" r="2" fill="#2563eb" opacity="0.55"/>
<circle cx="228.3" cy="235.8" r="2" fill="#2563eb" opacity="0.55"/>
<circle cx="229.5" cy="40.0" r="2" fill="#2563eb" opacity="0.55"/>
<circle cx="227.7" cy="224.8" r="2" fill="#2563eb" opacity="0.55"/>
<circle cx="227.7" cy="183.6" r="2" fill="#2563eb" opacity="0.55"/>
<circle cx="225.3" cy="187.4" r="2" fill="#2563eb" opacity="0.55"/>
<circle cx="225.9" cy="217.0" r="2" fill="#2563eb" opacity="0.55"/>
<circle cx="225.9" cy="192.0" r="2" fill="#2563eb" opacity="0.55"/>
<circle cx="225.9" cy="217.2" r="2" fill="#2563eb" opacity="0.55"/>
<circle cx="224.1" cy="225.4" r="2" fill="#2563eb" opacity="0.55"/>
<circle cx="215.6" cy="193.1" r="2" fill="#2563eb" opacity="0.55"/>
<circle cx="215.6" cy="206.8" r="2" fill="#2563eb" opacity="0.55"/>
<circle cx="225.3" cy="199.7" r="2" fill="#2563eb" opacity="0.55"/>
<circle cx="225.9" cy="195.3" r="2" fill="#2563eb" opacity="0.55"/>
<circle cx="220.5" cy="239.8" r="2" fill="#2563eb" opacity="0.55"/>
<circle cx="215.0" cy="251.4" r="2" fill="#2563eb" opacity="0.55"/>
<circle cx="224.1" cy="207.3" r="2" fill="#2563eb" opacity="0.55"/>
<circle cx="221.1" cy="221.5" r="2" fill="#2563eb" opacity="0.55"/>
<circle cx="215.0" cy="185.8" r="2" fill="#2563eb" opacity="0.55"/>
<circle cx="222.9" cy="183.4" r="2" fill="#2563eb" opacity="0.55"/>
<circle cx="219.2" cy="198.9" r="2" fill="#2563eb" opacity="0.55"/>
<circle cx="194.6" cy="179.6" r="2" fill="#2563eb" opacity="0.55"/>
<circle cx="194.0" cy="192.3" r="2" fill="#2563eb" opacity="0.55"/>
<circle cx="218.6" cy="208.7" r="2" fill="#2563eb" opacity="0.55"/>
<circle cx="223.5" cy="188.8" r="2" fill="#2563eb" opacity="0.55"/>
<circle cx="212.6" cy="216.7" r="2" fill="#2563eb" opacity="0.55"/>
<circle cx="220.5" cy="184.2" r="2" fill="#2563eb" opacity="0.55"/>
<circle cx="223.5" cy="191.7" r="2" fill="#2563eb" opacity="0.55"/>
<circle cx="224.7" cy="183.6" r="2" fill="#2563eb" opacity="0.55"/>
<circle cx="204.2" cy="175.5" r="2" fill="#2563eb" opacity="0.55"/>
<circle cx="222.3" cy="221.0" r="2" fill="#2563eb" opacity="0.55"/>
<circle cx="207.2" cy="182.7" r="2" fill="#2563eb" opacity="0.55"/>
<circle cx="192.8" cy="112.6" r="2" fill="#2563eb" opacity="0.55"/>
<circle cx="214.4" cy="235.1" r="2" fill="#2563eb" opacity="0.55"/>
<circle cx="186.8" cy="208.5" r="2" fill="#2563eb" opacity="0.55"/>
<circle cx="222.9" cy="209.8" r="2" fill="#2563eb" opacity="0.55"/>
<circle cx="190.4" cy="202.1" r="2" fill="#2563eb" opacity="0.55"/>
<circle cx="182.0" cy="169.7" r="2" fill="#2563eb" opacity="0.55"/>
<circle cx="203.0" cy="223.1" r="2" fill="#2563eb" opacity="0.55"/>
<circle cx="219.8" cy="218.4" r="2" fill="#2563eb" opacity="0.55"/>
<circle cx="188.6" cy="200.9" r="2" fill="#2563eb" opacity="0.55"/>
<circle cx="183.8" cy="195.0" r="2" fill="#2563eb" opacity="0.55"/>
<circle cx="160.9" cy="149.4" r="2" fill="#2563eb" opacity="0.55"/>
<circle cx="201.2" cy="224.9" r="2" fill="#2563eb" opacity="0.55"/>
<circle cx="185.6" cy="200.4" r="2" fill="#2563eb" opacity="0.55"/>
<circle cx="186.8" cy="197.8" r="2" fill="#2563eb" opacity="0.55"/>
<circle cx="217.4" cy="184.5" r="2" fill="#2563eb" opacity="0.55"/>
<circle cx="185.6" cy="201.7" r="2" fill="#2563eb" opacity="0.55"/>
<circle cx="203.6" cy="207.4" r="2" fill="#2563eb" opacity="0.55"/>
<circle cx="148.9" cy="178.2" r="2" fill="#2563eb" opacity="0.55"/>
<circle cx="215.0" cy="192.1" r="2" fill="#2563eb" opacity="0.55"/>
<circle cx="216.8" cy="197.8" r="2" fill="#2563eb" opacity="0.55"/>
<circle cx="178.9" cy="214.6" r="2" fill="#2563eb" opacity="0.55"/>
<circle cx="142.9" cy="285.9" r="2" fill="#2563eb" opacity="0.55"/>
<circle cx="197.0" cy="238.3" r="2" fill="#2563eb" opacity="0.55"/>
<circle cx="219.8" cy="201.5" r="2" fill="#2563eb" opacity="0.55"/>
<circle cx="145.3" cy="259.8" r="2" fill="#2563eb" opacity="0.55"/>
<circle cx="165.7" cy="195.2" r="2" fill="#2563eb" opacity="0.55"/>
<circle cx="213.8" cy="232.6" r="2" fill="#2563eb" opacity="0.55"/>
<circle cx="133.2" cy="222.3" r="2" fill="#2563eb" opacity="0.55"/>
<circle cx="176.5" cy="268.9" r="2" fill="#2563eb" opacity="0.55"/>
<circle cx="177.1" cy="222.5" r="2" fill="#2563eb" opacity="0.55"/>
<circle cx="151.3" cy="320.0" r="2" fill="#2563eb" opacity="0.55"/>
<circle cx="213.8" cy="205.5" r="2" fill="#2563eb" opacity="0.55"/>
<circle cx="216.8" cy="253.7" r="2" fill="#2563eb" opacity="0.55"/>
<circle cx="165.1" cy="257.2" r="2" fill="#2563eb" opacity="0.55"/>
<circle cx="192.2" cy="180.5" r="2" fill="#2563eb" opacity="0.55"/>
<circle cx="212.6" cy="218.7" r="2" fill="#2563eb" opacity="0.55"/>
<circle cx="174.1" cy="225.9" r="2" fill="#2563eb" opacity="0.55"/>
<circle cx="215.6" cy="234.2" r="2" fill="#2563eb" opacity="0.55"/>
<circle cx="109.8" cy="259.8" r="2" fill="#2563eb" opacity="0.55"/>
<circle cx="118.2" cy="245.0" r="2" fill="#2563eb" opacity="0.55"/>
<circle cx="203.6" cy="205.3" r="2" fill="#2563eb" opacity="0.55"/>
<circle cx="162.7" cy="200.2" r="2" fill="#2563eb" opacity="0.55"/>
<circle cx="185.6" cy="210.5" r="2" fill="#2563eb" opacity="0.55"/>
<circle cx="109.2" cy="250.7" r="2" fill="#2563eb" opacity="0.55"/>
<circle cx="213.2" cy="223.5" r="2" fill="#2563eb" opacity="0.55"/>
<circle cx="174.7" cy="171.2" r="2" fill="#2563eb" opacity="0.55"/>
<circle cx="105.0" cy="266.9" r="2" fill="#2563eb" opacity="0.55"/>
<circle cx="210.2" cy="205.8" r="2" fill="#2563eb" opacity="0.55"/>
<circle cx="202.4" cy="188.8" r="2" fill="#2563eb" opacity="0.55"/>
<circle cx="164.5" cy="263.3" r="2" fill="#2563eb" opacity="0.55"/>
<circle cx="215.6" cy="199.1" r="2" fill="#2563eb" opacity="0.55"/>
<circle cx="206.6" cy="203.9" r="2" fill="#2563eb" opacity="0.55"/>
<circle cx="198.8" cy="201.8" r="2" fill="#2563eb" opacity="0.55"/>
<circle cx="214.4" cy="194.6" r="2" fill="#2563eb" opacity="0.55"/>
<circle cx="213.2" cy="199.1" r="2" fill="#2563eb" opacity="0.55"/>
<circle cx="173.5" cy="124.5" r="2" fill="#2563eb" opacity="0.55"/>
<circle cx="121.2" cy="221.2" r="2" fill="#2563eb" opacity="0.55"/>
<circle cx="159.7" cy="196.6" r="2" fill="#2563eb" opacity="0.55"/>
<circle cx="168.1" cy="201.4" r="2" fill="#2563eb" opacity="0.55"/>
<circle cx="114.6" cy="213.2" r="2" fill="#2563eb" opacity="0.55"/>
<circle cx="208.4" cy="211.2" r="2" fill="#2563eb" opacity="0.55"/>
<circle cx="202.4" cy="176.0" r="2" fill="#2563eb" opacity="0.55"/>
<circle cx="184.4" cy="191.6" r="2" fill="#2563eb" opacity="0.55"/>
<circle cx="214.4" cy="189.2" r="2" fill="#2563eb" opacity="0.55"/>
<circle cx="193.4" cy="243.2" r="2" fill="#2563eb" opacity="0.55"/>
<circle cx="196.4" cy="223.7" r="2" fill="#2563eb" opacity="0.55"/>
<circle cx="209.6" cy="189.2" r="2" fill="#2563eb" opacity="0.55"/>
<circle cx="211.4" cy="191.4" r="2" fill="#2563eb" opacity="0.55"/>
<circle cx="208.4" cy="205.0" r="2" fill="#2563eb" opacity="0.55"/>
<circle cx="197.0" cy="212.5" r="2" fill="#2563eb" opacity="0.55"/>
<circle cx="208.4" cy="256.0" r="2" fill="#2563eb" opacity="0.55"/>
<circle cx="151.3" cy="208.6" r="2" fill="#2563eb" opacity="0.55"/>
<circle cx="190.4" cy="238.9" r="2" fill="#2563eb" opacity="0.55"/>
<circle cx="191.0" cy="215.6" r="2" fill="#2563eb" opacity="0.55"/>
<circle cx="203.0" cy="212.4" r="2" fill="#2563eb" opacity="0.55"/>
<circle cx="210.8" cy="217.6" r="2" fill="#2563eb" opacity="0.55"/>
<circle cx="198.8" cy="208.4" r="2" fill="#2563eb" opacity="0.55"/>
<circle cx="175.9" cy="248.3" r="2" fill="#2563eb" opacity="0.55"/>
<circle cx="189.2" cy="220.1" r="2" fill="#2563eb" opacity="0.55"/>
<circle cx="188.6" cy="211.8" r="2" fill="#2563eb" opacity="0.55"/>
<circle cx="160.3" cy="200.6" r="2" fill="#2563eb" opacity="0.55"/>
<circle cx="130.8" cy="225.9" r="2" fill="#2563eb" opacity="0.55"/>
<circle cx="148.3" cy="209.3" r="2" fill="#2563eb" opacity="0.55"/>
<circle cx="135.0" cy="207.6" r="2" fill="#2563eb" opacity="0.55"/>
<circle cx="62.3" cy="184.4" r="2" fill="#2563eb" opacity="0.55"/>
<circle cx="117.6" cy="198.4" r="2" fill="#2563eb" opacity="0.55"/>
<circle cx="197.0" cy="191.7" r="2" fill="#2563eb" opacity="0.55"/>
<circle cx="209.0" cy="220.8" r="2" fill="#2563eb" opacity="0.55"/>
<circle cx="197.6" cy="196.6" r="2" fill="#2563eb" opacity="0.55"/>
<circle cx="166.9" cy="190.9" r="2" fill="#2563eb" opacity="0.55"/>
<circle cx="191.0" cy="212.8" r="2" fill="#2563eb" opacity="0.55"/>
<circle cx="203.6" cy="207.6" r="2" fill="#2563eb" opacity="0.55"/>
<circle cx="102.6" cy="196.8" r="2" fill="#2563eb" opacity="0.55"/>
<circle cx="188.0" cy="210.2" r="2" fill="#2563eb" opacity="0.55"/>
<circle cx="177.1" cy="211.7" r="2" fill="#2563eb" opacity="0.55"/>
<circle cx="171.1" cy="238.4" r="2" fill="#2563eb" opacity="0.55"/>
<circle cx="206.0" cy="189.0" r="2" fill="#2563eb" opacity="0.55"/>
<circle cx="65.3" cy="135.1" r="2" fill="#2563eb" opacity="0.55"/>
<circle cx="103.2" cy="199.4" r="2" fill="#2563eb" opacity="0.55"/>
<circle cx="164.5" cy="179.4" r="2" fill="#2563eb" opacity="0.55"/>
<circle cx="173.5" cy="213.6" r="2" fill="#2563eb" opacity="0.55"/>
<circle cx="144.7" cy="214.6" r="2" fill="#2563eb" opacity="0.55"/>
<circle cx="165.7" cy="230.3" r="2" fill="#2563eb" opacity="0.55"/>
<circle cx="64.1" cy="225.1" r="2" fill="#2563eb" opacity="0.55"/>
<circle cx="194.0" cy="241.0" r="2" fill="#2563eb" opacity="0.55"/>
<circle cx="135.6" cy="212.5" r="2" fill="#2563eb" opacity="0.55"/>
<circle cx="172.9" cy="201.6" r="2" fill="#2563eb" opacity="0.55"/>
<circle cx="194.6" cy="193.5" r="2" fill="#2563eb" opacity="0.55"/>
<circle cx="55.6" cy="234.9" r="2" fill="#2563eb" opacity="0.55"/>
<circle cx="196.4" cy="190.3" r="2" fill="#2563eb" opacity="0.55"/>
<circle cx="163.3" cy="226.5" r="2" fill="#2563eb" opacity="0.55"/>
<circle cx="142.9" cy="207.7" r="2" fill="#2563eb" opacity="0.55"/>
<circle cx="129.0" cy="165.0" r="2" fill="#2563eb" opacity="0.55"/>
<circle cx="169.9" cy="227.1" r="2" fill="#2563eb" opacity="0.55"/>
<circle cx="171.7" cy="179.0" r="2" fill="#2563eb" opacity="0.55"/>
<circle cx="191.6" cy="213.4" r="2" fill="#2563eb" opacity="0.55"/>
<circle cx="163.9" cy="203.6" r="2" fill="#2563eb" opacity="0.55"/>
<circle cx="156.1" cy="200.4" r="2" fill="#2563eb" opacity="0.55"/>
<circle cx="172.3" cy="202.6" r="2" fill="#2563eb" opacity="0.55"/>
<circle cx="141.7" cy="202.6" r="2" fill="#2563eb" opacity="0.55"/>
<circle cx="188.0" cy="188.8" r="2" fill="#2563eb" opacity="0.55"/>
<circle cx="180.2" cy="181.5" r="2" fill="#2563eb" opacity="0.55"/>
<circle cx="48.4" cy="165.8" r="2" fill="#2563eb" opacity="0.55"/>
<circle cx="154.9" cy="220.8" r="2" fill="#2563eb" opacity="0.55"/>
<circle cx="165.7" cy="214.6" r="2" fill="#2563eb" opacity="0.55"/>
<circle cx="153.7" cy="229.8" r="2" fill="#2563eb" opacity="0.55"/>
<circle cx="126.0" cy="194.9" r="2" fill="#2563eb" opacity="0.55"/>
<circle cx="197.6" cy="231.8" r="2" fill="#2563eb" opacity="0.55"/>
<circle cx="166.3" cy="223.1" r="2" fill="#2563eb" opacity="0.55"/>
<circle cx="157.3" cy="220.4" r="2" fill="#2563eb" opacity="0.55"/>
<circle cx="49.0" cy="286.6" r="2" fill="#2563eb" opacity="0.55"/>
<circle cx="92.3" cy="176.9" r="2" fill="#2563eb" opacity="0.55"/>
<circle cx="124.8" cy="226.1" r="2" fill="#2563eb" opacity="0.55"/>
<circle cx="129.0" cy="154.7" r="2" fill="#2563eb" opacity="0.55"/>
<circle cx="58.0" cy="219.3" r="2" fill="#2563eb" opacity="0.55"/>
<circle cx="54.4" cy="194.2" r="2" fill="#2563eb" opacity="0.55"/>
<circle cx="163.9" cy="205.7" r="2" fill="#2563eb" opacity="0.55"/>
<circle cx="156.7" cy="185.8" r="2" fill="#2563eb" opacity="0.55"/>
<circle cx="181.4" cy="237.8" r="2" fill="#2563eb" opacity="0.55"/>
<circle cx="176.5" cy="216.6" r="2" fill="#2563eb" opacity="0.55"/>
<circle cx="155.5" cy="189.5" r="2" fill="#2563eb" opacity="0.55"/>
<circle cx="61.7" cy="221.6" r="2" fill="#2563eb" opacity="0.55"/>
<circle cx="129.6" cy="223.3" r="2" fill="#2563eb" opacity="0.55"/>
<circle cx="49.0" cy="252.6" r="2" fill="#2563eb" opacity="0.55"/>
<circle cx="152.5" cy="199.0" r="2" fill="#2563eb" opacity="0.55"/>
<circle cx="92.3" cy="255.0" r="2" fill="#2563eb" opacity="0.55"/>
<circle cx="162.1" cy="215.1" r="2" fill="#2563eb" opacity="0.55"/>
<circle cx="100.8" cy="214.1" r="2" fill="#2563eb" opacity="0.55"/>
<circle cx="133.8" cy="229.5" r="2" fill="#2563eb" opacity="0.55"/>
<circle cx="90.5" cy="194.1" r="2" fill="#2563eb" opacity="0.55"/>
<circle cx="104.4" cy="238.4" r="2" fill="#2563eb" opacity="0.55"/>
<circle cx="105.0" cy="251.0" r="2" fill="#2563eb" opacity="0.55"/>
<circle cx="156.1" cy="179.5" r="2" fill="#2563eb" opacity="0.55"/>
<circle cx="135.0" cy="244.3" r="2" fill="#2563eb" opacity="0.55"/>
<circle cx="167.5" cy="223.3" r="2" fill="#2563eb" opacity="0.55"/>
<circle cx="157.3" cy="230.6" r="2" fill="#2563eb" opacity="0.55"/>
<circle cx="144.1" cy="209.5" r="2" fill="#2563eb" opacity="0.55"/>
<circle cx="140.5" cy="216.3" r="2" fill="#2563eb" opacity="0.55"/>
<circle cx="121.8" cy="227.5" r="2" fill="#2563eb" opacity="0.55"/>
<circle cx="122.4" cy="203.6" r="2" fill="#2563eb" opacity="0.55"/>
<circle cx="162.1" cy="209.8" r="2" fill="#2563eb" opacity="0.55"/>
<circle cx="157.9" cy="202.6" r="2" fill="#2563eb" opacity="0.55"/>
<circle cx="145.9" cy="210.0" r="2" fill="#2563eb" opacity="0.55"/>
<circle cx="145.3" cy="209.1" r="2" fill="#2563eb" opacity="0.55"/>
<circle cx="147.7" cy="218.9" r="2" fill="#2563eb" opacity="0.55"/>
<circle cx="142.3" cy="267.1" r="2" fill="#2563eb" opacity="0.55"/>
<circle cx="92.3" cy="239.3" r="2" fill="#2563eb" opacity="0.55"/>
<circle cx="139.2" cy="242.6" r="2" fill="#2563eb" opacity="0.55"/>
<circle cx="126.0" cy="189.8" r="2" fill="#2563eb" opacity="0.55"/>
<circle cx="141.7" cy="213.6" r="2" fill="#2563eb" opacity="0.55"/>
<circle cx="123.0" cy="187.5" r="2" fill="#2563eb" opacity="0.55"/>
<circle cx="106.8" cy="242.2" r="2" fill="#2563eb" opacity="0.55"/>
<circle cx="138.0" cy="217.7" r="2" fill="#2563eb" opacity="0.55"/>
<circle cx="140.5" cy="218.5" r="2" fill="#2563eb" opacity="0.55"/>
<circle cx="126.6" cy="193.1" r="2" fill="#2563eb" opacity="0.55"/>
<circle cx="95.9" cy="216.8" r="2" fill="#2563eb" opacity="0.55"/>
<circle cx="40.0" cy="208.1" r="2" fill="#2563eb" opacity="0.55"/>
<circle cx="83.9" cy="228.1" r="2" fill="#2563eb" opacity="0.55"/>
</svg>